<?xml version="1.0" standalone="no"?>
<!DOCTYPE svg PUBLIC "-//W3C//DTD SVG 20010904//EN"
 "http://www.w3.org/TR/2001/REC-SVG-20010904/DTD/svg10.dtd">
<svg version="1.0" xmlns="http://www.w3.org/2000/svg"
 width="1024.000000pt" height="1024.000000pt" viewBox="0 0 1024.000000 1024.000000"
 preserveAspectRatio="xMidYMid meet">

<g transform="translate(0.000000,1024.000000) scale(0.100000,-0.100000)"
fill="#000000" stroke="none">
<path d="M5370 8886 c-47 -18 -160 -75 -160 -81 0 -3 9 -1 20 5 11 6 20 8 20
6 0 -3 -14 -13 -31 -22 -18 -9 -28 -11 -24 -4 6 9 3 9 -11 2 -24 -13 -64 -46
-44 -36 13 7 13 5 1 -9 -15 -19 -36 -24 -25 -6 3 6 -12 -1 -35 -16 -22 -15
-38 -32 -35 -36 3 -5 2 -8 -3 -7 -15 4 -54 -23 -47 -34 4 -7 3 -8 -4 -4 -16
10 -172 -143 -246 -242 -72 -95 -116 -169 -95 -158 8 4 6 1 -3 -7 -10 -8 -15
-16 -12 -19 7 -8 -38 -98 -47 -93 -9 6 -21 -24 -13 -36 3 -5 1 -9 -4 -9 -6 0
-15 -14 -21 -31 -14 -40 -14 -48 0 -29 9 12 10 12 5 -3 -3 -11 -9 -30 -12 -43
-3 -13 -11 -21 -17 -17 -6 4 -8 0 -4 -10 4 -10 2 -17 -4 -17 -7 0 -9 -11 -7
-25 3 -15 1 -22 -5 -18 -6 4 -7 -4 -3 -21 4 -16 3 -25 -2 -22 -11 7 -25 -52
-16 -66 4 -6 1 -14 -6 -18 -8 -5 -14 -29 -14 -58 -1 -28 -4 -46 -7 -40 -9 14
-31 -106 -23 -127 5 -12 4 -16 -3 -12 -6 4 -13 -3 -17 -16 -9 -33 -7 -49 4
-42 6 4 8 11 5 16 -3 5 2 6 11 2 11 -4 15 -2 11 4 -4 6 0 14 9 17 8 3 12 2 9
-4 -3 -6 23 9 60 31 36 23 68 46 72 52 3 6 1 7 -5 3 -7 -4 -12 -5 -12 -2 0 3
10 10 21 17 17 9 20 8 13 -2 -14 -23 88 55 153 116 l63 60 0 65 c0 75 22 221
45 298 9 29 13 58 9 65 -4 6 -4 9 1 5 4 -4 27 32 51 80 48 96 48 96 34 87 -16
-10 -11 1 7 16 15 12 16 12 8 -1 -8 -13 -7 -13 9 -1 9 8 15 20 12 27 -3 7 0
16 6 20 7 5 8 2 3 -7 -8 -12 -6 -12 8 0 20 16 23 36 5 25 -9 -5 -9 -3 1 9 7 9
17 15 21 12 5 -3 17 6 29 20 l20 26 -1 -30 c-1 -17 -4 -28 -9 -26 -11 8 -30
-59 -23 -80 6 -13 4 -16 -5 -10 -10 6 -11 2 -6 -15 4 -14 3 -20 -3 -16 -12 7
-24 -48 -16 -82 4 -21 3 -24 -5 -12 -17 22 -7 -264 10 -315 l13 -40 7 50 6 50
0 -63 c0 -34 3 -65 6 -69 4 -3 7 28 7 69 0 118 19 180 34 110 4 -15 18 -41 32
-57 14 -17 22 -23 18 -15 -5 10 0 9 14 -4 25 -21 31 -36 7 -16 -8 7 -15 8 -15
2 0 -14 25 -33 33 -25 4 3 7 1 7 -5 0 -20 75 -63 95 -56 12 5 16 4 12 -3 -5
-7 5 -14 24 -18 41 -9 206 4 189 15 -8 5 24 6 71 4 61 -3 78 -2 61 5 -12 6
-28 8 -36 5 -8 -3 -23 -1 -33 6 -16 9 -15 10 7 5 14 -3 5 4 -18 15 -24 11 -49
17 -55 13 -7 -3 -9 -3 -5 2 10 11 -59 58 -72 50 -6 -4 -9 -3 -8 2 2 4 -22 33
-53 63 -30 30 -66 69 -78 85 -12 17 -19 24 -15 16 5 -9 3 -12 -5 -7 -6 4 -9
11 -6 16 8 13 -17 60 -28 53 -6 -3 -7 -2 -4 4 7 11 -17 86 -25 78 -3 -3 -3 7
-1 22 3 19 2 24 -5 15 -6 -8 -9 5 -9 40 -1 29 -4 71 -8 93 -5 31 -4 37 5 25 9
-12 11 -5 7 32 -3 31 -1 45 6 41 6 -4 7 4 3 21 -5 20 -4 26 5 20 9 -5 10 -1 7
14 -3 12 -1 23 5 25 6 2 10 18 10 35 0 18 3 28 7 22 4 -7 12 1 19 19 7 16 10
34 7 40 -4 5 -1 13 5 17 8 5 10 2 5 -7 -4 -8 0 -5 8 6 9 11 14 25 12 32 -3 7
0 15 6 19 7 5 9 2 4 -7 -4 -8 1 -3 11 11 10 13 31 39 47 57 15 18 26 33 25 32
-2 0 -20 -6 -39 -13z m5 -16 c-3 -5 -12 -10 -18 -10 -7 0 -6 4 3 10 19 12 23
12 15 0z m-65 -30 c-8 -5 -19 -10 -25 -10 -5 0 -3 5 5 10 8 5 20 10 25 10 6 0
3 -5 -5 -10z m-430 -307 c-109 -115 -130 -134 -100 -98 31 39 173 185 179 185
3 0 -33 -39 -79 -87z m200 -120 c-11 -17 -11 -17 -6 0 3 10 6 24 7 30 0 9 2 9
5 0 3 -7 0 -20 -6 -30z m127 -50 c-3 -10 -5 -4 -5 12 0 17 2 24 5 18 2 -7 2
-21 0 -30z m-279 -68 c-6 -14 -13 -23 -15 -21 -5 5 15 46 22 46 3 0 -1 -11 -7
-25z m-71 -187 c-3 -8 -6 -5 -6 6 -1 11 2 17 5 13 3 -3 4 -12 1 -19z m473 -28
c12 -16 19 -30 16 -30 -2 0 -14 14 -26 30 -12 17 -19 30 -16 30 2 0 14 -13 26
-30z m-493 -62 c-3 -8 -6 -5 -6 6 -1 11 2 17 5 13 3 -3 4 -12 1 -19z m548 2
c10 -11 16 -20 13 -20 -3 0 -13 9 -23 20 -10 11 -16 20 -13 20 3 0 13 -9 23
-20z m109 -89 c-2 -3 -12 3 -22 13 -16 17 -16 18 5 5 12 -7 20 -15 17 -18z
m-56 -78 c-10 -2 -28 -2 -40 0 -13 2 -5 4 17 4 22 1 32 -1 23 -4z m-981 -245
c-3 -8 -6 -5 -6 6 -1 11 2 17 5 13 3 -3 4 -12 1 -19z"/>
<path d="M7020 8449 c17 -6 6 -7 -35 -3 -43 3 -56 2 -45 -5 11 -8 1 -9 -35 -6
-38 4 -45 3 -30 -5 15 -8 9 -9 -25 -4 -33 4 -41 2 -30 -5 11 -8 6 -9 -19 -4
-22 4 -32 3 -28 -4 4 -6 -4 -8 -20 -5 -19 4 -24 2 -18 -8 5 -8 4 -11 -3 -6 -6
4 -23 4 -37 0 -20 -5 -23 -9 -13 -15 8 -6 9 -9 1 -9 -6 0 -20 -3 -30 -6 -15
-5 -15 -4 -3 5 19 14 11 14 -28 0 -18 -6 -30 -15 -27 -19 6 -9 -25 -23 -33
-15 -3 3 1 5 8 5 7 0 11 3 8 6 -8 7 -51 -15 -61 -32 -4 -8 -13 -14 -20 -14 -7
0 -6 4 3 10 20 13 4 13 -21 -1 -11 -5 -16 -15 -13 -21 4 -7 3 -8 -4 -4 -12 7
-73 -21 -107 -49 -11 -9 -14 -14 -7 -10 17 9 15 0 -5 -16 -14 -12 -16 -12 -9
0 6 9 5 12 -5 9 -8 -3 -13 -10 -12 -16 2 -6 -3 -9 -10 -7 -6 3 -25 -7 -42 -21
l-30 -26 35 22 35 22 -29 -25 c-16 -14 -34 -23 -41 -21 -6 3 -18 -3 -26 -12
-12 -15 -12 -17 0 -9 10 5 12 4 7 -4 -4 -6 -11 -9 -15 -7 -4 3 -30 -16 -58
-42 -27 -26 -33 -33 -14 -17 l36 30 -34 -37 c-19 -21 -41 -37 -49 -35 -8 1
-17 -4 -20 -12 -3 -9 0 -11 9 -6 8 4 -4 -11 -26 -34 -21 -22 -44 -41 -50 -41
-5 1 8 16 30 35 22 19 35 35 30 35 -6 0 -33 -22 -60 -50 -27 -27 -44 -50 -37
-50 7 0 12 5 12 11 0 8 5 8 15 -1 8 -7 22 -10 30 -6 9 3 14 2 11 -3 -3 -4 27
-11 67 -14 60 -5 75 -3 87 10 14 16 13 16 -5 3 -20 -15 -20 -14 -1 8 20 23 32
30 20 11 -4 -7 -1 -10 7 -7 8 3 13 11 11 17 -1 7 2 10 6 7 5 -3 17 3 27 14 10
11 14 20 10 20 -4 0 0 9 10 20 10 11 23 20 28 20 6 0 2 -7 -9 -15 -10 -8 -15
-15 -10 -15 4 0 27 14 50 32 50 39 67 54 46 43 -9 -5 -12 -4 -7 1 5 5 16 9 25
9 9 0 16 6 14 13 -1 8 2 11 8 7 13 -8 102 44 94 56 -3 5 3 6 12 2 12 -4 15 -3
10 5 -5 8 -1 10 10 5 13 -5 15 -3 9 7 -5 8 -4 11 2 7 16 -10 74 13 66 26 -3 5
-1 7 5 4 15 -10 43 3 35 16 -4 6 0 8 10 4 22 -8 49 2 40 16 -3 6 -1 7 5 3 6
-4 23 -4 37 0 21 5 24 9 13 16 -10 7 -9 8 5 4 9 -3 63 5 120 19 109 25 268 44
212 24 -110 -38 -164 -62 -160 -70 4 -5 -2 -6 -11 -2 -12 4 -15 3 -10 -5 4 -7
2 -10 -7 -6 -7 2 -25 -5 -38 -16 l-24 -21 25 12 c20 9 23 9 13 -1 -6 -7 -22
-13 -35 -14 -13 -1 -22 -7 -21 -13 1 -6 -17 -25 -40 -42 l-42 -32 39 35 c22
20 35 36 29 36 -28 0 -192 -198 -180 -217 3 -5 1 -15 -5 -23 -8 -12 -9 -12 -4
3 3 10 2 15 -4 12 -9 -5 -43 -106 -37 -110 22 -14 100 -35 108 -29 8 5 9 3 4
-6 -6 -10 -3 -12 13 -8 12 4 22 2 22 -4 0 -6 7 -7 16 -4 10 4 13 2 8 -6 -5 -8
-2 -9 9 -5 10 3 17 2 17 -3 0 -5 9 -8 20 -7 11 1 20 5 20 10 0 5 -8 6 -17 3
-16 -5 -16 -5 -2 7 9 7 19 26 23 43 4 18 24 51 44 75 20 24 36 45 35 49 -2 3
2 6 7 6 6 1 15 2 21 3 5 0 8 5 5 9 -2 4 4 8 14 9 17 1 18 -2 9 -25 -6 -14 -7
-38 -4 -52 4 -19 3 -21 -5 -10 -7 11 -10 -15 -10 -87 0 -57 3 -104 8 -104 4
-1 16 -3 28 -4 19 -2 104 -53 104 -62 0 -3 -11 2 -25 11 -14 9 -36 23 -50 32
-14 9 -25 14 -25 11 0 -4 84 -60 140 -92 13 -8 13 -7 0 10 -14 18 -14 18 11 0
15 -11 25 -24 22 -28 -3 -5 4 -4 15 2 15 8 21 7 25 -4 4 -10 1 -12 -11 -9 -13
5 -13 2 3 -11 45 -37 56 -37 30 0 -13 20 -27 45 -30 56 -4 11 -11 16 -17 13
-7 -4 -8 -2 -4 5 8 13 -14 82 -24 76 -4 -3 -5 8 -3 23 4 21 2 24 -6 12 -9 -11
-10 -5 -5 26 3 23 1 50 -4 61 -6 11 -7 24 -3 29 5 5 11 27 15 49 4 28 3 34 -4
20 -10 -22 -13 -6 -4 19 3 9 11 13 17 9 6 -4 8 2 5 15 -4 14 -2 20 5 15 7 -4
8 0 4 11 -4 10 -3 15 3 11 9 -5 15 16 11 38 -1 5 3 6 9 2 5 -3 10 -1 10 4 0 6
0 13 0 16 0 3 9 14 20 25 12 12 18 25 15 29 -2 5 2 14 10 21 8 7 15 9 15 4 0
-4 11 3 25 16 13 12 22 27 18 33 -3 6 -2 7 3 4 13 -8 39 9 39 25 0 7 7 13 15
13 25 0 80 27 74 36 -3 5 3 6 12 2 10 -3 15 -2 12 3 -3 5 7 9 23 10 17 1 36 9
43 19 10 14 21 16 52 11 22 -4 34 -3 27 2 -7 4 28 7 80 6 50 -1 73 1 50 3 -25
2 -44 10 -47 20 -4 10 -2 13 6 10 38 -15 51 -17 28 -4 -14 8 -36 18 -50 21
-20 6 -22 5 -10 -4 13 -10 12 -11 -3 -6 -10 3 -21 6 -23 6 -3 0 -3 4 1 10 8
12 -123 52 -148 44 -12 -4 -17 -2 -13 4 8 13 -46 25 -76 17 -19 -5 -20 -4 -8
5 12 9 3 11 -40 7 -35 -4 -48 -2 -35 3 12 5 -17 7 -75 5 -68 -2 -81 -1 -45 4
38 6 21 8 -70 8 -80 1 -112 -2 -95 -8z m88 -6 c-10 -2 -28 -2 -40 0 -13 2 -5
4 17 4 22 1 32 -1 23 -4z m477 -73 c3 -6 -1 -7 -9 -4 -18 7 -21 14 -7 14 6 0
13 -4 16 -10z m-628 -76 c-3 -3 -12 -4 -19 -1 -8 3 -5 6 6 6 11 1 17 -2 13 -5z
m-80 -20 c-3 -3 -12 -4 -19 -1 -8 3 -5 6 6 6 11 1 17 -2 13 -5z m-452 -14 c-3
-5 -12 -10 -18 -10 -7 0 -6 4 3 10 19 12 23 12 15 0z m298 -214 c-10 -13 -20
-22 -22 -20 -4 4 29 44 36 44 2 0 -4 -11 -14 -24z m-383 -21 c-7 -8 -17 -15
-23 -15 -6 0 -2 7 9 15 25 19 30 19 14 0z"/>
<path d="M7528 8283 c7 -3 16 -2 19 1 4 3 -2 6 -13 5 -11 0 -14 -3 -6 -6z"/>
<path d="M4610 8189 c-7 -11 -10 -23 -7 -25 2 -2 9 7 15 21 14 30 7 33 -8 4z"/>
<path d="M3318 7708 c-13 -18 -23 -40 -24 -49 -1 -16 -33 -69 -41 -69 -3 0 5
17 17 38 12 20 14 28 5 17 -28 -33 -49 -78 -33 -70 7 4 3 -2 -8 -12 -24 -20
-53 -70 -35 -59 7 5 9 1 5 -8 -3 -9 -10 -14 -14 -11 -8 5 -26 -33 -22 -47 1
-5 -2 -8 -8 -8 -5 0 -6 -7 -3 -17 4 -10 2 -14 -4 -10 -13 8 -26 -20 -16 -35 3
-7 1 -8 -5 -4 -11 7 -16 -7 -15 -41 1 -7 -4 -10 -10 -6 -6 4 -8 -2 -5 -15 4
-14 2 -20 -5 -15 -6 4 -8 0 -4 -10 4 -10 2 -17 -4 -17 -6 0 -8 -7 -5 -16 4
-10 2 -13 -6 -8 -7 5 -9 0 -6 -14 4 -14 2 -20 -4 -16 -7 4 -8 -5 -3 -27 4 -22
3 -29 -3 -21 -12 18 -35 -71 -27 -101 5 -18 4 -19 -5 -7 -9 12 -10 6 -5 -25 4
-27 3 -35 -4 -26 -11 17 -27 -91 -16 -108 3 -6 2 -11 -3 -11 -13 0 -25 -221
-13 -233 5 -5 7 -46 4 -95 -4 -53 -2 -83 4 -79 5 3 8 -6 5 -22 -7 -53 60 -347
78 -336 4 2 7 -9 7 -26 0 -16 4 -34 10 -40 14 -14 145 -1 137 13 -4 6 6 8 27
4 19 -3 29 -3 22 0 -7 3 -9 12 -6 21 5 12 3 14 -7 8 -9 -5 -11 -4 -6 3 11 18
-15 96 -27 80 -6 -9 -7 -8 -3 5 3 9 0 40 -6 68 -9 40 -14 47 -20 33 -6 -14 -7
-12 -3 7 2 14 -3 59 -11 100 -18 84 -35 481 -20 471 5 -3 7 18 3 49 -4 37 -3
48 4 34 7 -15 8 -10 4 20 -2 23 -1 34 4 27 6 -10 11 -4 17 20 8 31 8 29 12
-25 1 -32 6 -55 10 -53 4 3 7 -12 5 -32 -3 -30 -1 -33 7 -17 7 15 9 9 4 -25
-3 -25 -2 -40 3 -33 5 7 9 -3 9 -25 0 -50 68 -188 113 -231 20 -19 27 -29 16
-22 -11 8 -1 -5 23 -28 24 -24 47 -39 54 -35 7 4 8 3 4 -4 -4 -7 7 -18 26 -28
31 -16 32 -16 50 6 27 33 22 52 -27 103 -25 26 -45 51 -45 55 0 4 10 -4 21
-18 20 -24 20 -24 9 -2 -16 33 -10 35 36 12 21 -11 45 -18 52 -15 7 3 11 1 8
-4 -3 -5 1 -12 10 -15 21 -8 24 -8 24 5 0 5 -6 7 -12 3 -8 -4 -10 -3 -5 2 5 5
14 9 20 9 7 0 11 9 11 18 -1 10 1 16 4 13 8 -9 74 93 67 104 -4 6 -1 9 6 8 6
-2 14 3 17 11 3 8 0 11 -7 7 -17 -11 -13 0 6 15 15 12 16 12 8 -1 -8 -13 -7
-13 8 -1 10 8 16 16 13 18 -2 2 7 15 21 29 13 13 22 28 19 33 -3 5 2 15 12 22
15 12 16 12 7 -1 -5 -9 -2 -7 7 3 10 11 15 23 12 28 -3 5 0 8 8 7 7 -2 13 5
13 14 0 9 4 20 9 25 5 4 6 3 2 -4 -10 -17 -1 -16 13 1 10 12 6 14 -26 9 -49
-8 -206 -8 -258 -1 -22 3 -44 6 -48 7 -5 1 -6 5 -2 10 5 9 -32 27 -48 23 -4
-1 -6 4 -5 10 2 7 -6 13 -17 13 -11 1 -19 6 -18 12 1 6 -7 19 -17 28 -11 10
-20 15 -20 10 0 -4 -6 -2 -14 5 -8 6 -13 17 -11 23 3 7 -5 23 -16 37 l-21 25
17 -30 c16 -27 16 -29 1 -14 -10 9 -19 27 -21 40 -2 13 -13 50 -24 81 -12 32
-21 65 -22 75 0 17 -1 17 -8 -1 -4 -10 -7 50 -7 132 0 86 4 146 9 139 5 -7 6
4 3 26 -2 20 -1 35 3 32 11 -6 22 50 14 72 -4 11 -3 14 5 9 7 -4 12 -1 12 8 0
23 -6 20 -32 -16z m12 -24 c0 -8 -5 -12 -10 -9 -6 4 -8 11 -5 16 9 14 15 11
15 -7z m-109 -157 c-10 -9 -11 -8 -5 6 3 10 9 15 12 12 3 -3 0 -11 -7 -18z
m16 -549 c-2 -13 -4 -5 -4 17 -1 22 1 32 4 23 2 -10 2 -28 0 -40z m-220 -50
c-3 -7 -5 -2 -5 12 0 14 2 19 5 13 2 -7 2 -19 0 -25z m630 6 c-3 -3 -12 -4
-19 -1 -8 3 -5 6 6 6 11 1 17 -2 13 -5z m90 -10 c-3 -3 -12 -4 -19 -1 -8 3 -5
6 6 6 11 1 17 -2 13 -5z m50 0 c-3 -3 -12 -4 -19 -1 -8 3 -5 6 6 6 11 1 17 -2
13 -5z m-780 -76 c-3 -8 -6 -5 -6 6 -1 11 2 17 5 13 3 -3 4 -12 1 -19z m150
-110 c-3 -8 -6 -5 -6 6 -1 11 2 17 5 13 3 -3 4 -12 1 -19z m157 -55 c9 -18 14
-33 12 -33 -6 0 -36 55 -36 66 0 11 5 3 24 -33z m384 17 c-7 -10 -14 -17 -17
-15 -4 4 18 35 25 35 2 0 -1 -9 -8 -20z m-343 -90 c9 -16 13 -30 11 -30 -3 0
-12 14 -21 30 -9 17 -13 30 -11 30 3 0 12 -13 21 -30z m190 10 c3 -6 -1 -7 -9
-4 -18 7 -21 14 -7 14 6 0 13 -4 16 -10z m-378 -132 c-3 -8 -6 -5 -6 6 -1 11
2 17 5 13 3 -3 4 -12 1 -19z m-120 -240 c-3 -8 -6 -5 -6 6 -1 11 2 17 5 13 3
-3 4 -12 1 -19z"/>
<path d="M5595 7613 c-20 -4 -20 -12 -20 -456 0 -431 -6 -574 -25 -562 -4 3
-7 -23 -5 -57 l4 -63 -10 60 c-5 33 -11 92 -13 130 -1 39 -7 99 -11 135 -7 53
-10 60 -16 40 -6 -16 -7 -7 -4 25 3 28 1 73 -4 100 -5 28 -9 44 -10 38 0 -7
-6 -13 -11 -13 -7 0 -7 7 0 20 8 15 8 48 -2 121 -8 67 -15 95 -20 82 -5 -11
-6 -2 -3 22 6 40 -10 193 -20 204 -3 3 -45 -3 -92 -12 -47 -10 -87 -16 -90
-14 -5 6 133 37 163 37 13 0 24 5 24 10 0 6 -3 10 -7 10 -7 0 -11 26 -14 105
0 17 -3 24 -6 16 -4 -9 -7 -10 -12 -2 -6 9 -28 7 -85 -5 -51 -12 -73 -20 -64
-26 8 -5 -3 -6 -27 -3 -31 5 -37 4 -25 -5 12 -9 10 -10 -12 -6 -40 9 -81 -13
-74 -38 3 -12 6 -27 6 -34 0 -7 5 -10 11 -6 7 4 9 0 5 -14 -4 -11 -4 -32 -1
-45 7 -25 8 -25 42 -11 19 8 42 14 51 12 10 -2 -4 -9 -30 -16 -40 -10 -48 -16
-48 -35 0 -35 7 -37 58 -21 44 14 224 64 230 64 1 0 2 -8 1 -17 0 -10 -3 -13
-5 -6 -6 12 -22 9 -166 -34 -58 -17 -88 -31 -88 -41 0 -8 7 -41 16 -74 8 -33
13 -65 11 -71 -2 -6 -12 25 -22 70 -16 71 -20 80 -31 65 -11 -14 -13 -14 -14
-2 0 12 -2 13 -9 1 -9 -14 -25 23 -65 147 -11 32 -22 50 -29 45 -7 -4 -8 0 -4
11 6 15 3 17 -18 12 -54 -14 -135 -48 -131 -55 3 -4 -11 -15 -30 -24 -47 -23
-57 -21 -14 3 68 37 19 19 -71 -25 -57 -29 -87 -50 -83 -57 4 -7 3 -8 -4 -4
-14 8 -134 -63 -127 -75 3 -4 0 -11 -6 -15 -8 -4 -9 -3 -5 4 11 18 -10 14 -25
-5 -12 -14 -12 -16 1 -9 8 4 2 -3 -15 -16 -16 -12 -36 -23 -45 -23 -8 0 -14
-6 -12 -13 1 -8 -1 -11 -6 -8 -5 3 -22 -7 -38 -22 -17 -15 -21 -20 -10 -12 21
15 21 15 2 -7 -10 -13 -23 -20 -28 -17 -21 13 -342 -328 -336 -357 2 -7 -3
-13 -9 -14 -7 0 -25 -18 -40 -40 -25 -38 -25 -39 -3 -20 l23 20 -23 -32 c-24
-33 -38 -45 -24 -20 5 9 3 8 -7 -1 -12 -11 3 -29 96 -116 61 -57 114 -101 119
-98 5 3 6 1 3 -5 -5 -9 102 -123 116 -123 3 0 36 37 73 83 153 186 302 311
484 406 118 62 321 136 400 146 26 3 6 -5 -48 -20 -344 -94 -563 -234 -812
-520 l-89 -102 30 -42 c38 -51 23 -53 -54 -6 -62 38 -72 41 -61 23 4 -7 3 -8
-5 -4 -6 4 -9 11 -6 16 8 12 -33 33 -47 24 -7 -5 -8 -3 -3 6 6 10 4 12 -8 7
-9 -3 -19 -1 -23 5 -5 7 -2 8 6 3 9 -6 11 -4 6 4 -5 7 -15 10 -23 7 -8 -3 -11
-2 -8 4 7 11 -81 64 -93 56 -5 -3 -18 1 -28 10 -18 14 -18 15 4 4 38 -19 24
-3 -23 25 -25 14 -50 23 -57 19 -6 -4 -8 -3 -5 3 8 13 -40 46 -54 37 -6 -3 -8
-12 -5 -20 3 -7 0 -16 -6 -20 -7 -5 -8 -2 -3 7 5 10 5 11 -2 4 -18 -17 -78
-129 -65 -121 9 6 10 2 1 -18 -7 -14 -16 -23 -21 -20 -5 3 -24 -29 -43 -71
-36 -78 -45 -109 -20 -65 8 14 14 19 15 13 0 -7 -9 -22 -20 -33 -12 -12 -18
-26 -14 -32 4 -6 3 -8 -3 -5 -11 7 -28 -22 -18 -31 3 -3 5 1 5 8 0 7 2 11 5 8
9 -8 -6 -38 -16 -32 -5 3 -9 1 -9 -5 0 -5 -3 -16 -6 -25 -5 -14 5 -16 78 -16
l84 0 38 73 c48 91 139 246 161 272 22 27 15 12 -35 -70 -24 -38 -67 -114 -96
-167 l-52 -98 34 0 c29 0 36 5 45 28 58 158 134 312 159 320 10 4 10 0 -3 -12
-10 -10 -28 -39 -41 -65 -26 -51 -106 -237 -106 -245 0 -4 12 -7 28 -7 l27 -1
-30 -9 c-19 -5 6 -7 70 -4 55 3 124 5 153 5 40 0 51 3 46 13 -6 9 -4 9 7 2 16
-11 252 -8 245 3 -2 4 30 5 71 4 l76 -4 81 79 c108 106 164 150 271 215 117
72 159 93 256 128 92 34 316 93 332 87 7 -2 -33 -14 -88 -26 -212 -49 -364
-111 -530 -219 -92 -60 -256 -199 -283 -239 l-14 -23 208 0 c154 1 213 4 226
13 10 8 31 11 55 8 l38 -6 -50 -6 c-27 -3 325 -7 783 -7 946 -2 865 -11 755
84 -139 120 -292 210 -450 263 -73 24 -300 71 -346 71 -18 0 -39 5 -47 10 -16
10 -4 9 135 -12 297 -43 540 -158 737 -348 74 -71 109 -92 122 -72 3 5 -28 46
-70 90 -215 232 -476 352 -809 372 l-110 7 93 1 c156 3 384 -55 532 -135 98
-53 202 -137 304 -244 l91 -96 345 -9 c190 -5 391 -9 447 -9 56 0 95 -2 87 -6
-9 -3 62 -10 157 -17 95 -6 177 -8 182 -3 12 12 -62 193 -76 184 -6 -3 -7 -1
-3 6 10 16 -3 53 -16 45 -7 -4 -8 -2 -4 4 8 13 -10 51 -33 70 -11 9 -11 11 -2
6 8 -4 -4 26 -26 67 -23 41 -47 73 -53 71 -6 -1 -9 2 -5 8 6 10 -31 80 -41 80
-3 0 -2 -5 2 -12 4 -7 3 -8 -5 -4 -6 4 -9 11 -6 16 7 12 -24 62 -34 55 -4 -2
-8 2 -8 9 0 15 -118 182 -136 192 -7 4 -4 -2 6 -13 9 -11 17 -24 17 -29 0 -4
-8 3 -17 16 -10 14 -17 29 -15 34 4 11 -38 56 -51 56 -11 0 -297 -238 -297
-247 0 -4 10 2 23 13 72 63 156 130 122 98 -22 -22 -65 -60 -95 -85 l-55 -46
40 -44 c55 -60 152 -189 204 -272 55 -88 131 -247 119 -247 -6 0 -12 9 -15 21
-23 88 -155 301 -276 446 -42 51 -77 98 -77 105 -1 9 -4 8 -13 -3 -12 -16 -57
-43 -61 -37 -38 51 -38 50 7 97 23 25 33 38 22 30 -18 -13 -18 -12 2 16 12 17
36 43 55 60 28 26 27 24 -7 -15 l-40 -45 47 44 c26 24 45 48 42 53 -3 5 0 7 8
6 7 -2 12 4 10 12 -2 8 0 12 4 8 8 -9 34 10 34 24 0 5 -6 6 -12 2 -7 -4 3 10
22 32 19 22 37 39 39 37 3 -2 -9 -18 -24 -36 -16 -17 -3 -6 30 26 l60 58 -28
25 c-16 13 -32 22 -37 19 -4 -3 -14 3 -21 13 -13 16 -12 16 6 2 20 -15 20 -15
1 8 -11 12 -25 21 -32 18 -7 -3 -18 3 -26 12 -12 16 -11 16 7 2 19 -14 19 -14
6 3 -8 10 -20 16 -27 13 -7 -3 -18 3 -26 12 -12 16 -11 16 7 2 20 -15 20 -14
1 8 -20 23 -42 31 -30 10 4 -8 3 -10 -2 -5 -5 5 -9 14 -9 19 0 6 -6 13 -14 16
-9 3 -11 0 -6 -8 5 -9 4 -11 -4 -6 -6 4 -9 11 -6 16 7 12 -103 82 -117 74 -6
-4 -8 -3 -4 4 4 6 -12 22 -37 36 -43 25 -77 36 -47 15 13 -9 13 -10 0 -6 -8 2
-15 10 -15 18 0 8 -8 13 -18 13 -9 -1 -15 1 -12 5 7 12 -131 75 -145 66 -8 -5
-11 -4 -7 2 7 11 -56 44 -75 39 -7 -1 -9 -1 -4 2 14 7 -116 54 -132 47 -7 -2
-11 -1 -8 4 7 11 -41 24 -56 15 -6 -4 -8 -3 -5 3 9 14 -38 26 -66 18 -15 -4
-18 -3 -9 3 18 12 -124 43 -174 37 -33 -4 -35 -3 -14 5 20 8 14 9 -25 5 -35
-3 -45 -2 -35 5 17 11 -19 15 -140 13 -58 -1 -67 0 -40 6 34 8 33 8 -16 10
l-51 1 -7 -52 c-4 -29 -10 -64 -13 -77 -3 -14 -2 -22 4 -18 5 3 15 2 23 -4 12
-7 10 -9 -6 -9 -27 0 -36 -22 -28 -69 4 -28 3 -33 -6 -21 -9 12 -10 5 -6 -29
3 -32 2 -41 -5 -30 -7 10 -8 0 -5 -31 4 -32 3 -39 -3 -25 l-10 20 0 -20 c-1
-11 -4 -29 -7 -41 -5 -19 0 -21 68 -27 96 -8 249 -35 302 -53 22 -8 30 -11 16
-9 -101 21 -319 55 -350 55 -28 0 -40 -5 -44 -17 -19 -64 -55 -289 -50 -311 4
-22 3 -24 -6 -12 -9 12 -11 9 -7 -15 3 -16 1 -48 -4 -70 l-8 -40 3 43 c2 23 0
40 -5 36 -5 -3 -9 -15 -9 -27 0 -12 -4 -27 -8 -34 -4 -6 -7 81 -7 192 0 112 3
197 6 187 8 -22 21 261 13 284 -4 14 -3 15 4 6 12 -18 24 142 14 183 -8 30 -8
30 -88 31 -43 1 -88 0 -99 -3z m-258 -39 c-3 -3 -12 -4 -19 -1 -8 3 -5 6 6 6
11 1 17 -2 13 -5z m960 -10 c-3 -3 -12 -4 -19 -1 -8 3 -5 6 6 6 11 1 17 -2 13
-5z m90 -20 c-3 -3 -12 -4 -19 -1 -8 3 -5 6 6 6 11 1 17 -2 13 -5z m-610 -36
c-3 -7 -5 -2 -5 12 0 14 2 19 5 13 2 -7 2 -19 0 -25z m-792 -28 c-3 -5 -16
-10 -28 -9 -20 1 -20 2 3 9 14 4 26 8 28 9 2 1 0 -3 -3 -9z m-65 -20 c-8 -5
-19 -10 -25 -10 -5 0 -3 5 5 10 8 5 20 10 25 10 6 0 3 -5 -5 -10z m1222 -20
c208 -38 376 -93 563 -186 83 -41 161 -83 175 -95 14 -11 0 -6 -30 11 -248
142 -575 252 -829 279 -58 6 -65 9 -30 10 25 0 93 -8 151 -19z m-42 -52 c183
-31 374 -87 570 -166 99 -40 212 -94 206 -99 -2 -2 -26 7 -53 20 -204 103
-521 204 -763 242 -119 19 -196 37 -120 28 25 -2 97 -14 160 -25z m-1364 -13
c-11 -8 -25 -15 -30 -15 -6 1 0 7 14 15 32 19 40 18 16 0z m2114 0 c14 -8 21
-14 15 -14 -5 0 -21 6 -35 14 -14 8 -20 14 -15 14 6 0 21 -6 35 -14z m-1780
-7 c0 -7 -34 -26 -75 -42 -88 -33 -287 -144 -382 -212 -155 -111 -389 -333
-470 -448 -15 -20 -28 -34 -31 -31 -13 13 228 270 353 374 161 135 343 249
515 322 41 17 77 35 78 40 5 13 12 11 12 -3z m-410 -33 c0 -2 -10 -9 -22 -15
-22 -11 -22 -10 -4 4 21 17 26 19 26 11z m440 -44 c0 -5 3 -18 6 -28 3 -11 0
-10 -8 5 l-14 23 -155 -78 c-85 -43 -194 -104 -244 -135 -131 -82 -332 -247
-470 -384 -76 -76 -99 -95 -64 -54 188 218 549 484 834 614 106 48 115 51 115
37z m1915 -9 c-3 -3 -11 0 -18 7 -9 10 -8 11 6 5 10 -3 15 -9 12 -12z m-1860
-137 c52 -126 58 -142 47 -130 -10 10 -92 208 -92 221 0 15 8 -2 45 -91z
m1985 59 c0 -2 -9 0 -20 6 -11 6 -20 13 -20 16 0 2 9 0 20 -6 11 -6 20 -13 20
-16z m-1393 -36 c-3 -8 -6 -5 -6 6 -1 11 2 17 5 13 3 -3 4 -12 1 -19z m-290
-40 c-3 -8 -6 -5 -6 6 -1 11 2 17 5 13 3 -3 4 -12 1 -19z m-234 -68 c4 -22 3
-29 -2 -20 -5 8 -11 35 -15 60 -6 50 6 21 17 -40z m814 55 c92 -13 206 -31
253 -40 47 -8 89 -15 94 -15 5 0 7 -2 4 -5 -3 -3 -60 3 -128 15 -67 11 -185
30 -262 40 -78 11 -144 22 -146 25 -8 8 7 6 185 -20z m898 7 c-3 -3 -11 0 -18
7 -9 10 -8 11 6 5 10 -3 15 -9 12 -12z m-575 -27 c85 -31 64 -32 -26 -1 -38
14 -62 25 -54 25 8 0 44 -10 80 -24z m555 15 c3 -6 -1 -7 -9 -4 -18 7 -21 14
-7 14 6 0 13 -4 16 -10z m-1068 -22 c-3 -8 -6 -5 -6 6 -1 11 2 17 5 13 3 -3 4
-12 1 -19z m-1537 -11 c0 -2 -12 -14 -27 -28 l-28 -24 24 28 c23 25 31 32 31
24z m1157 -29 c-3 -7 -5 -2 -5 12 0 14 2 19 5 13 2 -7 2 -19 0 -25z m360 -60
c-3 -8 -6 -5 -6 6 -1 11 2 17 5 13 3 -3 4 -12 1 -19z m1568 3 c-3 -6 -11 -11
-16 -11 -5 0 -4 6 3 14 14 16 24 13 13 -3z m-3175 -4 c0 -1 -24 -25 -52 -52
l-53 -50 50 53 c46 48 55 57 55 49z m1195 -8 c-22 -4 -53 -7 -70 -7 -26 1 -24
2 10 8 22 4 54 7 70 7 25 1 23 -1 -10 -8z m-108 -15 c-3 -3 -12 -4 -19 -1 -8
3 -5 6 6 6 11 1 17 -2 13 -5z m166 -11 c-7 -2 -19 -2 -25 0 -7 3 -2 5 12 5 14
0 19 -2 13 -5z m264 -90 c-2 -21 -4 -6 -4 32 0 39 2 55 4 38 2 -18 2 -50 0
-70z m80 65 c-3 -7 -5 -2 -5 12 0 14 2 19 5 13 2 -7 2 -19 0 -25z m989 -23
c50 -24 125 -65 165 -93 81 -56 159 -122 144 -122 -5 0 -25 15 -45 34 -54 51
-160 121 -252 163 -131 61 -156 74 -128 67 14 -4 66 -26 116 -49z m-1459 20
c-168 -44 -283 -87 -442 -165 -187 -92 -317 -185 -487 -349 l-111 -107 84 -83
c46 -46 75 -79 63 -73 -11 6 -51 43 -88 83 l-68 72 88 89 c260 262 542 427
889 522 55 15 105 29 110 31 6 2 19 3 30 3 11 0 -19 -10 -68 -23z m1407 -37
c75 -44 283 -195 305 -222 25 -30 2 -16 -48 28 -64 57 -223 168 -296 206 -31
16 -51 30 -44 30 7 0 45 -19 83 -42z m714 -39 c-27 -17 -48 -35 -48 -39 0 -4
-7 -11 -16 -14 -9 -3 -12 -2 -9 5 10 15 98 78 110 79 6 0 -11 -14 -37 -31z
m-3388 -19 c-17 -22 -34 -40 -37 -40 -2 0 10 18 27 40 17 22 34 40 37 40 2 0
-10 -18 -27 -40z m2033 15 c280 -46 542 -171 738 -352 l46 -43 79 92 c43 51
79 95 81 97 2 2 5 2 8 0 4 -4 -16 -29 -134 -165 l-27 -31 74 -79 c41 -43 83
-92 94 -109 12 -16 -1 -5 -27 25 -89 102 -254 259 -327 311 -175 123 -392 208
-643 252 -44 8 -73 15 -65 16 8 0 55 -6 103 -14z m117 -77 c309 -114 534 -248
725 -433 l100 -96 -120 106 c-66 59 -167 139 -224 177 -159 106 -405 219 -611
280 -61 18 -79 26 -50 22 25 -3 106 -28 180 -56z m1390 -33 c7 -9 8 -15 2 -15
-5 0 -12 7 -16 15 -3 8 -4 15 -2 15 2 0 9 -7 16 -15z m45 -61 c9 -15 12 -23 6
-20 -11 7 -35 46 -28 46 3 0 12 -12 22 -26z m-2085 -99 c-7 -96 -7 -97 -8 -29
-2 62 6 140 13 132 1 -2 -1 -48 -5 -103z m-1600 40 c13 -14 21 -25 18 -25 -2
0 -15 11 -28 25 -13 14 -21 25 -18 25 2 0 15 -11 28 -25z m130 1 c0 -2 -8 -10
-17 -17 -16 -13 -17 -12 -4 4 13 16 21 21 21 13z m1300 -17 c-166 -19 -306
-61 -450 -135 -119 -61 -207 -129 -340 -263 -63 -64 -101 -98 -83 -76 77 98
253 252 369 322 145 88 388 162 529 161 42 -1 38 -2 -25 -9z m1846 -144 c36
-44 87 -111 113 -150 60 -87 146 -245 133 -245 -5 0 -17 20 -26 45 -24 63
-181 296 -252 375 -86 96 -107 122 -65 85 18 -16 62 -66 97 -110z m-136 122
c0 -5 -161 -131 -180 -142 -26 -14 1 10 89 79 81 63 91 70 91 63z m461 -112
c105 -141 258 -425 228 -425 -5 0 -9 6 -9 14 0 28 -110 233 -182 339 -40 60
-79 118 -87 130 -26 38 4 4 50 -58z m189 55 c6 -11 8 -20 6 -20 -3 0 -10 9
-16 20 -6 11 -8 20 -6 20 3 0 10 -9 16 -20z m-212 -77 c79 -135 172 -341 172
-381 0 -9 -18 28 -39 83 -43 112 -80 189 -146 300 -24 42 -41 74 -36 71 5 -3
27 -36 49 -73z m-3413 27 c3 -5 2 -10 -4 -10 -5 0 -13 5 -16 10 -3 6 -2 10 4
10 5 0 13 -4 16 -10z m-205 -26 c0 -2 -9 0 -20 6 -11 6 -20 13 -20 16 0 2 9 0
20 -6 11 -6 20 -13 20 -16z m3870 6 c6 -11 8 -20 6 -20 -3 0 -10 9 -16 20 -6
11 -8 20 -6 20 3 0 10 -9 16 -20z m-3579 -67 c13 -16 12 -17 -3 -4 -10 7 -18
15 -18 17 0 8 8 3 21 -13z m-170 -10 c13 -16 12 -17 -3 -4 -10 7 -18 15 -18
17 0 8 8 3 21 -13z m3793 1 c3 -8 2 -12 -4 -9 -6 3 -10 10 -10 16 0 14 7 11
14 -7z m-1928 -88 c104 -26 230 -72 239 -87 3 -4 -20 3 -51 17 -118 52 -264
83 -439 94 l-130 8 140 -3 c108 -3 163 -9 241 -29z m-387 20 c-2 -2 -33 -6
-69 -9 -41 -3 -54 -2 -35 3 31 8 112 13 104 6z m-202 -37 c-84 -24 -172 -63
-261 -117 -83 -51 -102 -55 -26 -6 113 73 279 144 335 143 11 0 -11 -9 -48
-20z m-1636 -16 c-12 -20 -14 -14 -5 12 4 9 9 14 11 11 3 -2 0 -13 -6 -23z
m569 -8 c0 -10 -16 -4 -40 16 l-25 20 33 -16 c17 -8 32 -18 32 -20z m1625 -6
c84 -12 208 -39 202 -45 -2 -2 -46 5 -98 17 -122 27 -270 36 -443 27 -160 -8
-255 -30 -391 -88 -114 -48 -137 -52 -39 -6 152 72 254 96 434 105 149 7 230
5 335 -10z m-1517 -60 c98 -72 96 -79 -3 -10 -60 41 -71 51 -62 51 5 0 34 -19
65 -41z m3572 -14 c0 -5 -5 -3 -10 5 -5 8 -10 20 -10 25 0 6 5 3 10 -5 5 -8
10 -19 10 -25z m-1794 9 c19 -15 19 -15 -1 -6 -11 5 -27 12 -35 15 -13 5 -13
6 1 6 8 1 24 -6 35 -15z m1814 -59 c0 -5 -5 -3 -10 5 -5 8 -10 20 -10 25 0 6
5 3 10 -5 5 -8 10 -19 10 -25z m-3013 -21 c-3 -3 -12 -4 -19 -1 -8 3 -5 6 6 6
11 1 17 -2 13 -5z m196 -1 c-7 -2 -19 -2 -25 0 -7 3 -2 5 12 5 14 0 19 -2 13
-5z m854 1 c-3 -3 -12 -4 -19 -1 -8 3 -5 6 6 6 11 1 17 -2 13 -5z m40 0 c-3
-3 -12 -4 -19 -1 -8 3 -5 6 6 6 11 1 17 -2 13 -5z m56 -1 c-7 -2 -19 -2 -25 0
-7 3 -2 5 12 5 14 0 19 -2 13 -5z m100 0 c-7 -2 -21 -2 -30 0 -10 3 -4 5 12 5
17 0 24 -2 18 -5z m-2056 -19 c-3 -3 -12 -4 -19 -1 -8 3 -5 6 6 6 11 1 17 -2
13 -5z m3231 -1 c-10 -2 -28 -2 -40 0 -13 2 -5 4 17 4 22 1 32 -1 23 -4z
m-3391 -9 c-3 -3 -12 -4 -19 -1 -8 3 -5 6 6 6 11 1 17 -2 13 -5z m-329 -11
c-10 -2 -26 -2 -35 0 -10 3 -2 5 17 5 19 0 27 -2 18 -5z m4339 -19 c-3 -3 -12
-4 -19 -1 -8 3 -5 6 6 6 11 1 17 -2 13 -5z"/>
<path d="M4469 7223 c-13 -16 -12 -17 4 -4 9 7 17 15 17 17 0 8 -8 3 -21 -13z"/>
<path d="M7624 7145 c21 -19 42 -32 46 -30 4 2 16 -5 26 -18 l19 -22 -25 20
-25 20 19 -23 c29 -34 134 -95 152 -88 10 4 13 2 8 -6 -5 -8 -2 -9 10 -5 25
10 72 -3 54 -14 -8 -6 -9 -9 -1 -9 6 0 20 -3 30 -6 15 -5 16 -4 3 6 -13 10
-12 11 3 6 10 -3 23 -6 28 -6 6 0 8 -4 5 -9 -8 -12 37 -23 61 -15 13 4 14 3 5
-3 -16 -12 62 -38 80 -27 7 5 8 3 3 -6 -6 -10 -3 -12 13 -8 12 4 20 3 17 -2
-6 -10 24 -22 36 -14 5 3 9 0 9 -6 0 -7 7 -9 17 -6 10 4 14 4 10 0 -10 -10 72
-55 86 -47 7 3 9 3 5 -2 -4 -4 16 -24 45 -43 28 -19 73 -49 98 -68 25 -18 49
-31 53 -29 3 3 4 2 1 -2 -6 -8 14 -33 27 -33 5 0 6 6 2 13 -4 7 -3 9 2 4 5 -5
9 -14 9 -20 1 -7 7 -11 15 -9 8 2 12 0 7 -4 -4 -4 5 -20 20 -36 27 -28 51 -39
37 -16 -5 7 -3 8 5 4 7 -5 10 -10 7 -13 -9 -9 34 -64 45 -58 5 4 6 -1 3 -10
-6 -14 -9 -14 -28 0 -44 32 -119 66 -133 61 -8 -3 -12 -2 -9 3 7 11 -109 55
-123 46 -6 -3 -11 -2 -11 2 0 5 -49 9 -109 9 -60 -1 -107 -5 -104 -10 3 -4 -5
-5 -17 -1 -17 5 -21 4 -15 -6 6 -9 3 -11 -8 -6 -9 3 -27 2 -39 -3 -13 -5 -17
-9 -10 -9 6 -1 12 -6 12 -12 0 -5 -4 -7 -10 -4 -5 3 11 -29 36 -71 25 -42 58
-109 73 -147 18 -44 31 -65 35 -56 3 8 4 3 1 -11 -4 -21 18 -119 32 -143 5 -8
73 88 73 101 0 4 -5 0 -11 -8 -8 -12 -10 -12 -7 -1 2 8 12 15 23 17 10 1 25
10 34 20 11 11 11 14 2 9 -10 -6 -12 -4 -7 4 4 6 11 9 16 6 4 -3 27 4 50 14
27 12 37 21 28 25 -7 3 3 3 22 0 23 -3 30 -2 22 4 -15 10 121 7 138 -3 5 -3
28 -7 50 -8 22 -1 40 -5 40 -10 0 -5 10 -5 23 -1 12 3 19 3 14 -2 -10 -10 52
-36 66 -27 6 4 7 1 2 -7 -6 -10 -3 -12 13 -8 12 4 20 3 17 -1 -6 -10 64 -43
76 -35 5 3 8 0 7 -8 -2 -7 5 -12 14 -12 10 1 15 -2 13 -7 -7 -11 30 -30 40
-21 5 4 5 2 1 -5 -8 -14 27 -36 39 -25 5 4 5 2 2 -4 -7 -12 26 -48 35 -38 4 3
9 -3 12 -13 3 -10 15 -24 26 -30 16 -11 18 -10 14 2 -4 8 -10 15 -16 15 -5 0
-6 5 -2 12 5 7 3 8 -6 3 -10 -6 -12 -4 -7 7 3 9 -3 24 -14 34 -11 10 -17 24
-14 31 2 8 1 12 -4 9 -5 -3 -12 1 -15 10 -4 10 -2 13 6 8 13 -8 -48 105 -75
138 -10 13 -16 17 -12 11 12 -24 -3 -13 -21 15 -17 26 -17 27 1 12 12 -10 9 0
-10 28 -31 46 -47 58 -21 15 l17 -28 -20 24 c-12 12 -18 27 -15 32 8 14 -16
40 -29 32 -6 -3 -7 -1 -3 6 9 14 -12 43 -25 35 -5 -3 -6 1 -3 9 5 13 -10 32
-31 39 -5 1 -9 8 -7 14 1 6 -10 21 -25 35 -21 18 -24 19 -13 4 12 -17 12 -18
0 -7 -8 7 -15 20 -15 30 0 9 -6 16 -13 14 -8 -1 -11 1 -8 6 8 14 -221 235
-235 226 -7 -4 -10 -3 -6 3 8 12 -18 37 -30 30 -5 -3 -17 1 -28 9 -10 8 -14
14 -9 14 6 0 16 -6 23 -12 9 -8 11 -9 7 -1 -12 21 -116 84 -128 77 -7 -4 -8
-3 -4 4 8 14 -30 36 -46 26 -6 -4 -8 -3 -5 3 4 6 0 14 -9 17 -8 3 -12 2 -9 -4
4 -6 -5 -5 -19 1 -14 7 -23 15 -21 19 7 11 -52 33 -66 24 -7 -4 -10 -3 -6 3 4
6 -7 16 -25 22 -40 14 -51 14 -42 -1 4 -7 3 -8 -5 -4 -6 4 -8 12 -5 18 5 7 -2
9 -19 6 -16 -3 -24 -1 -20 5 4 6 -8 7 -33 3 -25 -4 -34 -3 -25 3 20 13 -54 19
-244 20 l-160 0 39 -34z m13 19 c-3 -3 -12 -4 -19 -1 -8 3 -5 6 6 6 11 1 17
-2 13 -5z m104 -101 c13 -16 12 -17 -3 -4 -10 7 -18 15 -18 17 0 8 8 3 21 -13z
m685 -101 c-4 -3 -14 2 -24 12 -16 18 -16 18 6 6 13 -6 21 -14 18 -18z m229
-192 c49 -49 87 -90 85 -90 -3 0 -46 41 -95 90 -49 50 -87 90 -85 90 3 0 46
-40 95 -90z m-185 -182 c10 -6 7 -7 -10 -2 -14 3 -32 11 -40 16 -10 6 -7 7 10
2 14 -3 32 -11 40 -16z m-346 -44 c3 -8 2 -12 -4 -9 -6 3 -10 10 -10 16 0 14
7 11 14 -7z m36 -68 c0 -12 -5 -7 -19 24 -11 24 -11 24 3 6 9 -11 16 -24 16
-30z m427 -122 c-3 -3 -12 -4 -19 -1 -8 3 -5 6 6 6 11 1 17 -2 13 -5z m-138
-28 c-2 -2 -15 -9 -29 -15 -24 -11 -24 -11 -6 3 16 13 49 24 35 12z m571 -16
c6 -11 8 -20 6 -20 -3 0 -10 9 -16 20 -6 11 -8 20 -6 20 3 0 10 -9 16 -20z
m34 -56 c3 -8 2 -12 -4 -9 -6 3 -10 10 -10 16 0 14 7 11 14 -7z"/>
<path d="M5531 6634 c0 -11 3 -14 6 -6 3 7 2 16 -1 19 -3 4 -6 -2 -5 -13z"/>
<path d="M8243 6633 c15 -2 37 -2 50 0 12 2 0 4 -28 4 -27 0 -38 -2 -22 -4z"/>
<path d="M2071 5843 c-103 -4 -131 -15 -107 -42 19 -21 43 -107 52 -184 6 -51
9 -57 16 -37 5 16 6 6 2 -28 -2 -29 -2 -57 1 -62 3 -5 8 -42 10 -82 3 -40 11
-145 19 -233 8 -88 17 -234 21 -325 3 -90 9 -167 13 -170 4 -3 8 -25 9 -49 1
-24 6 -48 11 -53 14 -14 161 -49 213 -51 26 -1 45 -6 42 -11 -3 -4 16 -6 43
-4 27 3 40 3 29 0 -14 -4 -2 -9 35 -18 46 -10 49 -12 22 -13 -21 -1 -31 -5
-27 -12 5 -7 -4 -8 -27 -5 -38 7 -261 -27 -238 -36 8 -4 -3 -4 -24 -1 -31 5
-37 3 -31 -7 5 -9 4 -11 -4 -6 -16 10 -121 -4 -121 -16 0 -6 39 -9 99 -6 55 1
97 -1 94 -5 -3 -5 69 -7 160 -5 91 2 163 0 160 -4 -2 -5 1 -8 6 -8 6 0 11 5
11 11 0 5 5 7 11 3 6 -3 171 -6 367 -5 197 1 1435 1 2752 1 1317 1 2410 3
2427 6 19 4 30 11 26 17 -3 6 -1 7 5 3 16 -10 103 4 96 15 -3 6 13 7 38 3 24
-3 38 -2 31 3 -13 9 11 10 417 16 157 2 290 1 295 -3 6 -4 57 -11 115 -14 58
-4 123 -9 146 -12 31 -4 43 -2 47 9 7 19 -3 58 -13 52 -5 -3 -6 5 -3 17 4 18
3 20 -6 8 -8 -11 -9 -5 -5 25 3 23 2 35 -3 28 -5 -7 -9 7 -10 35 0 26 -6 245
-12 487 -6 242 -16 470 -22 507 -10 61 -14 69 -45 88 -18 12 -75 32 -126 45
-51 13 -91 24 -88 25 3 1 25 4 50 6 77 6 141 14 250 31 79 13 99 19 80 24 -19
6 -16 7 17 6 23 0 46 3 50 7 5 5 -29 7 -74 5 -45 -2 -76 0 -70 4 7 5 -15 6
-48 3 -33 -3 -54 -1 -47 3 7 4 -62 11 -154 14 -164 7 -6798 6 -6983 0z m1314
-346 c-36 -112 -55 -192 -50 -210 5 -16 4 -18 -3 -8 -8 10 -11 6 -17 -17 -3
-18 -3 -37 1 -43 4 -7 3 -9 -3 -6 -12 8 -26 -49 -16 -67 3 -6 2 -7 -2 -3 -5 4
-15 -12 -22 -35 -14 -48 -16 -74 -3 -43 8 18 9 18 9 2 1 -10 -6 -20 -15 -24
-11 -4 -14 -13 -9 -30 4 -18 2 -23 -6 -17 -9 5 -10 1 -7 -14 4 -14 2 -20 -4
-16 -7 5 -9 -2 -6 -19 3 -16 1 -24 -5 -20 -6 4 -8 -5 -4 -23 3 -16 3 -22 0
-14 -4 9 -16 -21 -28 -70 l-21 -85 -115 -3 -115 -3 -12 61 c-9 40 -17 58 -24
54 -7 -4 -8 -3 -4 5 4 6 4 25 1 43 -5 23 -9 27 -16 17 -6 -9 -7 -1 -2 20 4 23
3 32 -5 28 -6 -5 -8 1 -4 15 3 15 2 19 -7 14 -9 -6 -10 0 -6 21 5 21 4 24 -4
13 -6 -9 -11 -10 -11 -3 0 6 -3 20 -6 30 -5 15 -4 16 6 3 10 -13 11 -12 6 3
-3 10 -6 26 -6 35 0 15 -2 15 -11 2 -9 -13 -10 -12 -5 3 8 24 -15 118 -27 110
-6 -3 -7 -1 -4 4 8 12 -43 214 -52 209 -3 -2 -6 8 -6 22 -1 15 -4 37 -9 50 -8
23 -7 23 81 20 83 -3 88 -4 91 -26 2 -12 7 -20 11 -17 5 2 6 -8 4 -23 -4 -22
-2 -24 7 -12 9 12 10 11 5 -7 -8 -31 5 -79 17 -61 6 8 7 1 3 -21 -6 -26 -4
-32 5 -26 9 5 11 4 6 -4 -9 -15 45 -222 56 -215 4 3 5 -1 2 -9 -5 -13 20 -118
34 -141 9 -15 33 104 26 128 -4 15 -3 17 4 8 12 -18 45 111 37 141 -5 17 -4
18 4 8 7 -11 11 -6 16 22 4 19 4 41 -1 48 -5 8 -3 10 6 4 10 -6 12 -3 8 13 -4
12 -3 20 2 17 10 -6 21 50 14 72 -5 15 -4 16 6 3 9 -12 11 -10 7 12 -2 15 -1
25 3 23 8 -5 22 53 16 64 -2 3 38 5 89 3 67 -2 93 -7 90 -15z m1089 14 c4 -5
-4 -7 -16 -5 -22 4 -22 4 1 -6 13 -6 26 -8 28 -6 3 2 17 -8 31 -23 25 -25 25
-25 7 -1 l-20 25 27 -24 c16 -14 26 -26 24 -29 -3 -2 4 -21 15 -40 10 -20 19
-44 19 -52 0 -13 1 -13 11 0 8 12 9 11 5 -5 -3 -11 -6 -64 -8 -117 -1 -53 -4
-95 -7 -93 -7 7 -33 -34 -27 -43 2 -4 0 -14 -6 -22 -8 -12 -8 -11 -3 5 5 15
-3 11 -32 -15 -21 -19 -39 -36 -41 -36 -1 -1 5 -18 14 -37 10 -20 21 -34 26
-31 4 3 5 -3 1 -12 -5 -13 -3 -15 7 -9 9 5 11 4 6 -4 -10 -16 3 -53 16 -45 6
4 8 2 5 -4 -10 -15 3 -43 16 -35 5 3 7 1 3 -5 -8 -14 23 -94 35 -86 5 3 6 -2
3 -10 -4 -11 -26 -15 -84 -18 -103 -4 -105 -3 -119 43 -7 24 -16 37 -23 33 -7
-4 -8 -3 -4 5 10 16 -24 102 -37 94 -6 -4 -7 -1 -3 6 9 14 -12 71 -26 71 -5 0
-7 4 -3 9 3 5 1 12 -5 16 -5 3 -10 3 -10 -2 0 -4 -20 -7 -45 -5 l-45 4 0 -135
0 -135 -80 -4 -80 -3 0 392 0 393 188 3 c103 1 197 3 209 5 12 1 24 -2 27 -7z
m3426 -80 l0 -78 -37 -6 c-21 -3 -84 -5 -141 -5 -110 0 -137 -9 -126 -45 4
-13 2 -17 -5 -13 -12 8 -16 -309 -5 -352 11 -41 52 -52 189 -52 l125 0 0 -75
0 -75 -147 0 c-82 0 -159 -3 -173 -6 -20 -5 -22 -4 -10 6 12 9 8 11 -20 6 -27
-5 -31 -3 -20 5 12 9 10 10 -8 6 -13 -3 -21 -3 -18 0 9 10 -46 63 -57 56 -6
-3 -7 -1 -4 4 4 6 1 26 -7 43 -7 18 -15 28 -17 21 -2 -6 -3 102 -1 241 2 180
6 263 16 288 7 19 11 40 9 47 -2 6 1 14 6 18 7 3 8 0 5 -9 -9 -23 -1 -20 27
11 18 21 19 24 4 13 -17 -12 -18 -12 -7 0 7 8 18 15 25 16 7 0 20 2 30 2 10 1
16 5 14 10 -3 4 75 6 174 4 l179 -3 0 -78z m697 -183 c-1 -51 -3 -10 -3 92 0
102 2 143 3 93 2 -51 2 -135 0 -185z m-4663 190 c0 -87 6 -85 -181 -82 l-133
1 0 -79 0 -78 135 0 135 0 0 -70 0 -70 -135 0 -135 0 0 -90 0 -90 160 0 161 0
-4 -72 -4 -73 -236 -3 -237 -2 0 390 0 390 238 0 237 0 -1 -72z m1241 61 c-7
-10 25 -20 38 -12 7 3 9 3 5 -2 -4 -4 4 -21 17 -37 14 -16 25 -34 25 -39 0 -6
4 -7 10 -4 6 4 7 -1 3 -11 -4 -11 -2 -15 4 -11 6 4 8 -3 5 -18 -2 -15 0 -25 7
-25 7 0 10 -4 7 -8 -3 -5 -6 -118 -7 -252 0 -134 -4 -238 -8 -231 -5 8 -12 2
-21 -19 -7 -18 -30 -45 -51 -60 -21 -15 -36 -30 -33 -32 2 -3 -8 -3 -23 -1
-23 4 -25 2 -13 -7 13 -10 12 -11 -3 -6 -10 3 -106 6 -213 6 l-194 0 0 391 0
390 225 -2 c123 -1 222 -6 220 -10z m705 -64 l0 -75 -127 -2 c-169 -2 -166 -2
-180 -11 -19 -12 -17 -112 3 -131 14 -15 76 -20 216 -19 10 0 16 -3 13 -5 -3
-3 9 -14 25 -24 17 -10 35 -29 42 -43 6 -13 15 -22 21 -18 5 3 6 -3 2 -17 -4
-12 -3 -20 1 -17 5 3 10 -16 10 -41 1 -26 4 -67 8 -92 4 -28 3 -37 -2 -25 -7
16 -10 13 -15 -20 -4 -22 -15 -56 -26 -76 -11 -20 -18 -39 -15 -41 2 -3 -2 -5
-8 -5 -20 -1 -90 -41 -81 -45 4 -3 2 -3 -5 -1 -8 1 -94 3 -193 3 l-179 0 0 75
0 75 156 0 c116 0 153 3 148 12 -5 8 -2 9 9 5 9 -3 20 -1 23 5 12 19 22 88 12
82 -5 -3 -6 5 -3 19 4 15 2 28 -6 32 -8 6 -10 4 -5 -6 4 -8 0 -5 -8 5 -14 17
-30 20 -115 20 -54 1 -97 4 -95 7 4 7 -45 24 -58 21 -5 -1 -7 1 -6 5 1 5 -7
23 -19 41 -14 23 -23 29 -26 20 -4 -7 -3 0 0 16 3 16 2 27 -3 23 -5 -3 -6 39
-3 101 4 59 4 111 1 116 -3 5 0 6 6 2 7 -4 12 -3 12 3 0 18 54 74 85 87 21 9
83 13 208 14 l177 0 0 -75z m526 45 c4 -17 11 -27 17 -23 5 3 7 1 4 -4 -10
-16 4 -74 16 -66 6 3 7 1 3 -6 -9 -14 3 -73 13 -66 5 2 6 -7 3 -22 -4 -19 -2
-24 8 -18 9 5 11 4 6 -4 -4 -6 -4 -25 -1 -43 6 -23 9 -27 17 -17 8 11 9 10 4
-4 -9 -28 14 -112 26 -95 7 9 8 6 4 -12 -7 -34 14 -116 26 -98 6 9 7 6 3 -9
-8 -28 4 -75 18 -66 6 4 7 1 3 -6 -9 -15 23 -142 34 -136 5 3 6 -5 2 -17 -3
-14 -1 -19 6 -14 8 5 10 2 6 -9 -5 -13 -21 -15 -93 -13 -81 3 -86 4 -89 26 -2
12 -7 20 -11 17 -5 -2 -6 7 -3 22 3 16 1 24 -5 20 -6 -4 -8 4 -6 21 4 22 2 24
-7 12 -9 -12 -10 -8 -5 18 l7 33 -119 -3 -118 -3 -21 -80 -21 -80 -88 -3 c-77
-2 -87 -1 -81 13 17 46 46 179 42 192 -3 8 -2 12 2 9 12 -7 34 86 26 110 -5
16 -4 17 6 4 9 -12 11 -10 7 12 -2 15 -1 25 3 23 11 -7 33 92 24 106 -5 8 -3
9 6 4 10 -6 12 -1 7 26 -4 21 -4 29 2 21 11 -17 26 52 15 70 -4 6 -3 8 4 5 6
-5 19 28 33 88 l23 95 118 0 119 0 5 -30z m454 19 c0 -5 5 -7 12 -3 7 4 8 3 4
-4 -9 -15 24 -73 37 -65 6 3 7 1 3 -5 -9 -15 11 -53 26 -49 6 1 13 -5 15 -13
4 -13 3 -13 -6 0 -24 34 -8 -6 30 -75 24 -44 45 -72 51 -68 7 3 8 1 4 -5 -10
-16 22 -74 36 -66 7 4 8 3 4 -4 -4 -6 0 -25 9 -42 17 -33 27 -40 19 -12 -5 16
-5 16 6 -1 6 -9 9 -21 6 -25 -2 -4 -1 -14 5 -22 5 -10 9 76 9 228 l0 242 85 0
85 0 0 -62 c0 -35 1 -209 2 -388 l3 -325 -86 -3 -86 -3 -13 31 c-7 16 -16 27
-21 24 -5 -3 -6 1 -4 8 3 8 -2 22 -10 33 -15 19 -16 19 -5 -5 10 -23 10 -24
-4 -7 -8 11 -12 26 -9 35 5 11 3 13 -7 7 -9 -5 -11 -4 -6 3 4 6 0 25 -9 42
-18 34 -31 41 -15 8 10 -21 10 -22 -4 -5 -8 11 -12 26 -9 35 4 10 2 13 -5 8
-8 -5 -10 -1 -5 10 4 11 2 15 -4 11 -6 -4 -10 1 -9 11 0 9 -4 16 -11 15 -8 -2
-10 4 -6 14 4 11 3 14 -5 9 -8 -5 -10 -1 -5 10 4 11 2 15 -4 11 -6 -4 -10 1
-9 11 0 9 -4 16 -11 15 -8 -2 -10 4 -6 14 4 10 2 14 -5 9 -6 -3 -14 -1 -18 5
-4 8 -3 9 4 5 19 -11 14 6 -14 49 -15 22 -24 32 -20 23 3 -10 0 -18 -5 -18 -7
0 -9 11 -7 24 3 14 1 31 -3 38 -5 7 -9 -98 -9 -234 l0 -248 -80 0 -80 0 -2
390 -3 390 83 0 c51 0 82 -4 82 -11z m1320 -144 l0 -155 116 0 116 0 -7 83
c-4 45 -7 84 -8 87 0 3 3 35 7 73 l8 67 84 0 84 0 0 -389 0 -390 -90 -3 -90
-3 1 153 c0 84 -3 158 -7 164 -4 7 -3 8 4 4 7 -4 12 -2 12 3 0 7 -41 11 -115
11 l-115 0 0 -165 0 -165 -85 0 -85 0 0 390 0 390 85 0 85 0 0 -155z m17 123
c-3 -8 -6 -5 -6 6 -1 11 2 17 5 13 3 -3 4 -12 1 -19z m-2300 -10 c-3 -8 -6 -5
-6 6 -1 11 2 17 5 13 3 -3 4 -12 1 -19z m240 -30 c-3 -8 -6 -5 -6 6 -1 11 2
17 5 13 3 -3 4 -12 1 -19z m-240 -35 c-3 -10 -5 -2 -5 17 0 19 2 27 5 18 2
-10 2 -26 0 -35z m-1860 -10 c-3 -10 -5 -4 -5 12 0 17 2 24 5 18 2 -7 2 -21 0
-30z m4160 -65 c-2 -13 -4 -5 -4 17 -1 22 1 32 4 23 2 -10 2 -28 0 -40z
m-1207 -24 c12 -19 21 -37 18 -39 -2 -2 -14 14 -26 36 -28 49 -22 52 8 3z
m417 -16 c-3 -8 -6 -5 -6 6 -1 11 2 17 5 13 3 -3 4 -12 1 -19z m-2790 -40 c-3
-7 -5 -2 -5 12 0 14 2 19 5 13 2 -7 2 -19 0 -25z m-1290 -10 c-3 -8 -6 -5 -6
6 -1 11 2 17 5 13 3 -3 4 -12 1 -19z m120 0 c-3 -8 -6 -5 -6 6 -1 11 2 17 5
13 3 -3 4 -12 1 -19z m-450 -30 c-3 -8 -6 -5 -6 6 -1 11 2 17 5 13 3 -3 4 -12
1 -19z m831 5 c-38 -2 -98 -2 -135 0 -38 2 -7 3 67 3 74 0 105 -1 68 -3z
m4425 0 c-13 -2 -33 -2 -45 0 -13 2 -3 4 22 4 25 0 35 -2 23 -4z m-4216 -35
c-3 -8 -6 -5 -6 6 -1 11 2 17 5 13 3 -3 4 -12 1 -19z m2030 -10 c-3 -8 -6 -5
-6 6 -1 11 2 17 5 13 3 -3 4 -12 1 -19z m2530 -235 c-1 -43 -3 -10 -3 72 0 83
2 118 3 78 2 -40 2 -107 0 -150z m-4560 170 c-3 -10 -5 -4 -5 12 0 17 2 24 5
18 2 -7 2 -21 0 -30z m2840 -190 c-1 -43 -3 -8 -3 77 0 85 2 120 3 78 2 -43 2
-113 0 -155z m28 217 c3 -5 1 -10 -4 -10 -6 0 -11 5 -11 10 0 6 2 10 4 10 3 0
8 -4 11 -10z m-1302 -87 c-7 -2 -21 -2 -30 0 -10 3 -4 5 12 5 17 0 24 -2 18
-5z m314 -40 c-3 -10 -5 -2 -5 17 0 19 2 27 5 18 2 -10 2 -26 0 -35z m2320 41
c-3 -3 -12 -4 -19 -1 -8 3 -5 6 6 6 11 1 17 -2 13 -5z m56 -1 c-7 -2 -19 -2
-25 0 -7 3 -2 5 12 5 14 0 19 -2 13 -5z m70 0 c-7 -2 -19 -2 -25 0 -7 3 -2 5
12 5 14 0 19 -2 13 -5z m-4916 -25 c-3 -8 -6 -5 -6 6 -1 11 2 17 5 13 3 -3 4
-12 1 -19z m4750 -10 c-3 -7 -5 -2 -5 12 0 14 2 19 5 13 2 -7 2 -19 0 -25z
m-600 -25 c-3 -10 -5 -2 -5 17 0 19 2 27 5 18 2 -10 2 -26 0 -35z m-3257 -58
c0 -5 -5 -3 -10 5 -5 8 -10 20 -10 25 0 6 5 3 10 -5 5 -8 10 -19 10 -25z
m-703 3 c-3 -8 -6 -5 -6 6 -1 11 2 17 5 13 3 -3 4 -12 1 -19z m86 -35 c-18 -2
-48 -2 -65 0 -18 2 -4 4 32 4 36 0 50 -2 33 -4z m180 0 c-13 -2 -33 -2 -45 0
-13 2 -3 4 22 4 25 0 35 -2 23 -4z m1675 0 c-32 -2 -86 -2 -120 0 -35 2 -9 3
57 3 66 0 94 -1 63 -3z m95 0 c-7 -2 -19 -2 -25 0 -7 3 -2 5 12 5 14 0 19 -2
13 -5z m2000 0 c-7 -2 -19 -2 -25 0 -7 3 -2 5 12 5 14 0 19 -2 13 -5z m90 0
c-7 -2 -21 -2 -30 0 -10 3 -4 5 12 5 17 0 24 -2 18 -5z m110 0 c-13 -2 -33 -2
-45 0 -13 2 -3 4 22 4 25 0 35 -2 23 -4z m-3836 -80 c-2 -16 -4 -3 -4 27 0 30
2 43 4 28 2 -16 2 -40 0 -55z m2240 71 c-3 -3 -12 -4 -19 -1 -8 3 -5 6 6 6 11
1 17 -2 13 -5z m1920 -36 c-3 -7 -5 -2 -5 12 0 14 2 19 5 13 2 -7 2 -19 0 -25z
m-2220 -20 c-3 -8 -6 -5 -6 6 -1 11 2 17 5 13 3 -3 4 -12 1 -19z m1457 6 c3
-8 2 -12 -4 -9 -6 3 -10 10 -10 16 0 14 7 11 14 -7z m1163 -66 c-2 -18 -4 -6
-4 27 0 33 2 48 4 33 2 -15 2 -42 0 -60z m-1720 40 c-3 -8 -6 -5 -6 6 -1 11 2
17 5 13 3 -3 4 -12 1 -19z m2410 -210 c-3 -7 -5 -2 -5 12 0 14 2 19 5 13 2 -7
2 -19 0 -25z m-7131 -25 c-6 -6 -36 9 -36 18 0 5 9 4 20 -3 10 -7 18 -14 16
-15z m271 -119 c-3 -3 -12 -4 -19 -1 -8 3 -5 6 6 6 11 1 17 -2 13 -5z m5996
-11 c-7 -2 -19 -2 -25 0 -7 3 -2 5 12 5 14 0 19 -2 13 -5z m764 -9 c-3 -3 -12
-4 -19 -1 -8 3 -5 6 6 6 11 1 17 -2 13 -5z m-7064 -31 c-7 -2 -19 -2 -25 0 -7
3 -2 5 12 5 14 0 19 -2 13 -5z m5984 -9 c-3 -3 -12 -4 -19 -1 -8 3 -5 6 6 6
11 1 17 -2 13 -5z"/>
<path d="M4210 5258 l0 -108 84 0 c109 0 127 13 134 95 3 38 1 56 -6 51 -5 -3
-13 1 -16 10 -3 8 -2 12 4 9 17 -11 11 11 -8 28 -13 12 -41 17 -105 19 l-87 3
0 -107z"/>
<path d="M4882 5115 l3 -230 85 -1 85 0 -82 3 c-70 3 -83 6 -83 21 0 11 3 13
8 5 10 -16 188 -21 184 -5 -1 7 4 11 10 10 8 -2 13 6 12 19 0 12 3 20 8 17 4
-3 8 70 8 163 0 175 -9 219 -43 217 -9 -1 -15 1 -13 5 2 3 -38 6 -90 6 l-94 0
2 -230z m15 -78 c-1 -45 -3 -5 -3 88 0 94 2 130 3 82 2 -48 2 -125 0 -170z"/>
<path d="M6251 5227 c-18 -78 -35 -152 -38 -164 -5 -22 -3 -23 76 -23 50 0 81
4 81 11 0 5 -5 7 -12 3 -7 -5 -8 -3 -4 5 10 16 -2 83 -14 76 -4 -3 -6 3 -3 13
3 14 -42 208 -51 219 -1 1 -17 -62 -35 -140z"/>
<path d="M8975 4291 c-11 -5 -23 -7 -27 -4 -11 6 -10 -23 2 -88 5 -30 14 -103
20 -162 13 -140 25 -165 36 -71 8 67 10 281 4 317 -4 19 -6 19 -35 8z m23
-291 c-1 -16 -4 -30 -9 -30 -4 0 -6 8 -4 18 2 9 4 23 4 30 2 26 10 10 9 -18z"/>
<path d="M8784 4281 c3 -5 -15 -6 -39 -3 -25 2 -45 0 -45 -5 0 -5 -16 -7 -35
-5 -19 2 -35 1 -35 -2 0 -11 30 -66 36 -66 3 0 2 5 -1 10 -3 6 -4 10 -1 10 3
0 10 -10 17 -21 9 -17 8 -20 -2 -14 -9 6 -11 3 -6 -9 4 -10 7 -20 7 -22 0 -3
4 -2 10 1 6 4 7 -1 3 -11 -5 -13 -3 -15 7 -9 8 5 11 4 6 -3 -3 -6 -1 -31 6
-56 7 -25 15 -41 18 -36 3 5 6 -7 7 -28 5 -149 17 -304 23 -287 4 11 5 44 2
74 -4 39 -2 52 6 47 6 -4 9 -21 7 -39 l-5 -32 10 30 c6 17 12 62 13 100 1 39
6 73 11 77 5 3 10 71 10 150 1 83 5 146 11 150 6 4 -3 8 -18 8 -16 0 -26 -4
-23 -9z m-117 -27 c-3 -3 -12 -4 -19 -1 -8 3 -5 6 6 6 11 1 17 -2 13 -5z m140
-186 c-3 -7 -5 -2 -5 12 0 14 2 19 5 13 2 -7 2 -19 0 -25z m-50 -130 c-3 -8
-6 -5 -6 6 -1 11 2 17 5 13 3 -3 4 -12 1 -19z m27 -52 c-3 -15 -8 -25 -11 -23
-2 3 -1 17 3 31 3 15 8 25 11 23 2 -3 1 -17 -3 -31z"/>
<path d="M7847 4204 c-3 -4 -52 -6 -108 -5 -56 1 -136 -1 -178 -5 l-76 -6 -24
-54 c-27 -61 -117 -207 -131 -212 -5 -2 11 27 36 65 48 70 104 175 104 193 0
5 -9 10 -21 10 -13 0 -18 -4 -13 -11 5 -9 -1 -10 -20 -5 -15 4 -138 4 -274 0
l-246 -7 -95 -100 c-53 -54 -141 -133 -196 -175 -98 -74 -250 -156 -310 -167
-17 -3 -8 3 20 13 168 63 365 205 505 362 l59 66 -32 -4 c-22 -3 -59 -29 -122
-86 -180 -163 -313 -265 -412 -315 -65 -33 -51 -19 30 29 109 65 251 175 355
275 l94 90 -124 0 c-67 0 -494 -1 -947 -2 l-825 -3 43 -31 c173 -128 408 -222
610 -245 l61 -7 1 49 c0 27 4 58 8 69 5 11 6 -10 3 -50 -2 -38 -6 -72 -9 -74
-2 -3 -45 1 -96 8 -184 26 -408 116 -560 225 -53 38 -86 55 -118 59 l-44 5 50
-44 c166 -148 418 -263 657 -301 117 -19 119 -20 97 -83 -7 -20 -8 -16 -4 16
l5 42 -58 7 c-232 28 -501 143 -671 285 -88 74 -88 74 -393 75 -108 0 -194 3
-191 8 2 4 -12 7 -32 7 -34 0 -35 -1 -24 -22 59 -112 191 -278 325 -409 136
-132 240 -208 414 -306 41 -23 71 -43 67 -43 -31 -1 -248 138 -379 242 -144
115 -336 336 -420 485 -26 45 -34 53 -60 53 l-30 0 23 -37 c13 -21 51 -81 85
-133 181 -279 408 -469 723 -606 42 -19 70 -34 63 -34 -45 0 -310 143 -420
227 -181 139 -306 288 -478 570 -9 15 -31 18 -145 24 -74 3 -136 4 -138 3 -12
-10 142 -306 221 -429 22 -33 28 -47 15 -31 -39 45 -144 228 -203 352 -52 111
-55 114 -87 114 -17 0 -71 3 -119 6 -61 3 -88 1 -88 -6 0 -6 5 -8 12 -4 7 5 8
3 4 -5 -9 -15 13 -73 25 -66 4 3 7 -3 6 -13 -1 -25 23 -83 33 -77 4 3 11 -2
14 -11 3 -8 2 -12 -4 -9 -6 3 -7 -1 -4 -9 3 -9 10 -14 14 -11 4 3 11 -2 14
-11 3 -9 2 -12 -5 -9 -6 4 4 -20 21 -54 16 -34 33 -61 36 -61 3 0 2 5 -1 10
-3 6 -4 10 -1 10 3 0 10 -10 17 -21 8 -16 8 -20 -1 -14 -7 4 -5 -6 5 -24 9
-18 20 -29 25 -26 6 3 7 0 5 -7 -3 -8 1 -22 10 -33 15 -20 15 -20 8 0 -3 11
-3 17 2 13 4 -4 8 -18 9 -30 1 -13 7 -22 14 -21 6 2 9 -3 6 -11 -3 -7 3 -19
12 -27 15 -12 17 -12 9 0 -5 10 -4 12 4 7 6 -4 9 -12 5 -17 -7 -13 74 -119 89
-116 7 1 11 -5 9 -14 -1 -8 10 -26 25 -40 l28 -24 -20 25 -20 25 22 -19 c13
-10 20 -23 17 -28 -8 -12 187 -210 202 -204 7 3 22 -7 35 -22 l24 -27 -26 20
c-14 11 -5 1 19 -22 25 -23 66 -56 91 -73 39 -27 42 -28 16 -5 -24 21 -25 24
-7 15 13 -6 41 -29 63 -51 22 -22 44 -37 49 -34 5 3 12 0 16 -6 5 -8 2 -10 -7
-5 -8 4 -5 0 6 -8 11 -9 25 -14 32 -12 7 3 15 0 19 -6 4 -7 3 -8 -4 -4 -7 4
-12 5 -12 3 0 -12 92 -57 103 -51 6 4 9 4 5 -1 -11 -11 29 -38 44 -29 6 4 8 3
5 -3 -8 -13 20 -26 35 -16 6 3 8 2 5 -4 -8 -13 41 -36 55 -27 7 4 8 2 4 -4 -7
-11 7 -16 41 -15 7 1 11 -3 8 -7 -7 -11 52 -33 66 -24 7 4 10 3 6 -3 -9 -14
18 -24 40 -16 10 4 14 2 10 -4 -9 -15 53 -36 79 -27 14 4 15 3 6 -4 -17 -12
70 -38 89 -27 7 5 10 4 6 -2 -8 -13 87 -38 104 -27 7 4 9 3 6 -3 -6 -9 57 -25
196 -48 l39 -6 -3 45 c-2 25 0 48 4 52 9 9 9 61 1 92 -5 17 -14 22 -38 22 -58
0 -324 59 -448 100 -157 51 -376 160 -498 247 -96 69 -226 190 -270 253 -13
19 25 -15 85 -76 61 -61 153 -141 205 -179 190 -134 470 -249 750 -305 176
-36 230 -39 230 -10 0 14 -9 20 -32 24 -321 52 -578 140 -826 283 -163 94
-383 255 -397 291 -3 8 22 -11 56 -42 146 -135 473 -322 718 -411 118 -42 305
-91 389 -100 31 -4 68 -8 81 -10 l24 -4 -6 82 c-3 45 -2 73 2 62 5 -13 10 10
15 70 4 50 10 106 13 127 4 30 2 37 -13 41 -18 4 -18 5 -1 6 16 1 18 8 13 59
-3 35 -2 45 2 27 7 -24 10 -14 17 55 5 47 10 115 10 153 0 37 2 63 3 57 5 -14
35 -13 50 2 9 9 12 7 14 -12 1 -14 5 2 9 35 5 46 6 32 5 -60 -3 -259 4 -460
15 -445 8 12 9 11 5 -6 -10 -33 -10 -339 -1 -354 5 -9 4 -15 -3 -18 -8 -2 -12
-32 -12 -88 l0 -84 115 0 c141 0 315 19 315 34 0 6 5 4 10 -4 7 -10 10 6 9 55
0 52 -3 65 -10 50 -7 -14 -8 -7 -4 25 8 58 -5 255 -16 239 -4 -7 -6 34 -4 92
3 81 2 93 -5 54 -6 -38 -7 -27 -4 48 2 53 3 97 2 97 -2 0 -52 -7 -113 -15
-117 -16 -285 -20 -285 -7 0 4 32 5 71 4 64 -3 241 11 294 24 18 5 20 12 19
82 -1 42 0 59 2 37 12 -121 12 -122 44 -117 25 3 30 0 36 -22 7 -28 0 -28 118
1 71 17 244 92 323 139 96 58 202 145 286 234 45 47 67 66 49 44 -49 -64 -139
-150 -226 -216 -101 -76 -313 -180 -435 -212 -51 -14 -96 -28 -99 -31 -3 -3 4
-49 16 -103 11 -53 29 -139 39 -189 10 -55 20 -88 25 -80 4 6 5 -6 1 -27 -4
-24 -2 -37 3 -33 6 3 9 -10 7 -31 -3 -31 -1 -34 7 -17 9 18 10 17 5 -5 -7 -39
6 -100 22 -100 8 0 46 7 85 16 51 12 67 19 57 26 -10 7 -8 8 8 3 28 -8 75 4
66 18 -3 6 -1 7 6 3 6 -4 25 -4 43 -1 23 5 27 9 17 16 -9 6 -4 7 15 3 22 -5
27 -4 21 6 -5 9 -4 11 4 6 16 -10 152 44 144 57 -3 6 -1 7 5 4 14 -9 43 3 36
14 -3 5 2 6 10 3 21 -8 188 84 180 98 -4 7 -2 8 4 4 13 -8 124 63 117 75 -3 4
0 11 6 15 8 4 9 3 5 -4 -4 -7 -4 -12 -1 -12 23 0 305 254 305 273 0 7 -12 -1
-25 -16 -14 -15 -25 -24 -25 -19 0 13 46 53 52 46 9 -8 133 146 132 163 -1 7
2 11 6 8 4 -3 14 2 21 11 11 14 5 23 -46 67 -32 29 -64 52 -69 52 -6 0 -11 5
-11 11 0 6 -36 50 -80 98 -44 48 -100 109 -124 136 -24 27 -48 47 -52 44 -5
-3 -9 -2 -8 3 3 19 -2 34 -10 28 -5 -3 -13 0 -17 7 -4 7 -4 10 0 6 5 -4 20 -2
34 3 17 7 29 6 36 -1 8 -8 6 -9 -6 -5 -42 16 -12 -8 57 -46 41 -22 77 -45 81
-50 3 -5 10 -9 17 -9 8 0 8 3 0 11 -9 9 -2 26 26 68 21 31 61 96 90 146 28 49
51 85 51 79 0 -14 -95 -178 -135 -236 -19 -25 -31 -49 -27 -53 4 -4 7 -12 7
-18 0 -7 8 -11 18 -11 9 1 15 -2 12 -6 -5 -9 74 -63 92 -63 7 0 9 -5 6 -10 -4
-6 0 -8 10 -4 10 4 16 2 14 -6 -1 -7 6 -11 17 -9 10 2 15 -1 12 -7 -8 -13 51
-44 66 -35 7 4 8 3 4 -4 -3 -6 2 -16 13 -21 27 -15 38 -14 20 2 -8 6 -12 11
-10 10 2 -2 11 3 19 10 13 9 14 9 8 0 -4 -7 -5 -13 -2 -13 6 0 56 84 56 94 0
4 -5 4 -11 0 -6 -3 -3 5 6 20 20 31 30 35 15 6 -6 -11 -9 -20 -6 -20 6 0 94
155 130 230 15 30 20 46 11 36 -8 -11 -15 -16 -15 -10 1 13 30 50 30 38 1 -11
27 35 46 83 l14 33 -63 0 c-35 0 -66 -3 -70 -6z m-4174 -21 c-7 -2 -21 -2 -30
0 -10 3 -4 5 12 5 17 0 24 -2 18 -5z m159 -106 c52 -98 144 -234 245 -362 26
-33 39 -53 29 -45 -28 22 -137 165 -198 260 -66 102 -155 265 -140 256 6 -3
35 -53 64 -109z m3405 87 c-3 -3 -12 -4 -19 -1 -8 3 -5 6 6 6 11 1 17 -2 13
-5z m-1430 -30 c-3 -3 -12 -4 -19 -1 -8 3 -5 6 6 6 11 1 17 -2 13 -5z m-1193
-112 c125 -109 379 -265 551 -337 66 -28 222 -74 293 -87 37 -7 58 -14 47 -16
-35 -5 -256 57 -363 103 -142 61 -279 140 -408 234 -112 83 -194 151 -182 151
4 0 32 -22 62 -48z m173 -196 c111 -84 268 -164 409 -209 115 -37 268 -67 341
-67 41 0 43 -2 42 -27 -1 -22 -3 -23 -6 -7 -3 18 -13 22 -76 27 -199 17 -449
101 -622 209 -104 66 -276 212 -318 273 -12 16 15 -7 61 -52 45 -45 121 -111
169 -147z m3078 164 c-14 -27 -28 -50 -30 -50 -3 0 6 23 20 50 14 28 28 50 30
50 3 0 -6 -22 -20 -50z m-1589 15 c-28 -21 -207 -88 -301 -113 -90 -24 -241
-46 -277 -40 -12 2 13 7 57 12 156 15 333 63 475 129 64 30 72 32 46 12z m14
-26 c-48 -42 -199 -113 -300 -142 -109 -31 -330 -63 -330 -48 0 5 37 11 83 14
180 13 384 77 507 161 77 52 87 56 40 15z m-628 -59 c3 -42 2 -64 -2 -50 -8
25 -13 137 -6 129 2 -2 6 -38 8 -79z m2143 -40 c-9 -16 -18 -30 -21 -30 -2 0
2 14 11 30 9 17 18 30 21 30 2 0 -2 -13 -11 -30z m-531 -52 c-17 -29 -125
-166 -161 -204 -47 -50 -35 -32 49 71 35 44 74 95 87 113 21 31 40 46 25 20z
m62 -40 c14 -16 14 -19 2 -10 -14 12 -27 2 -100 -73 -45 -48 -101 -101 -123
-118 -22 -17 13 21 78 85 64 64 117 121 117 127 0 16 4 14 26 -11z m-446 -39
c-179 -162 -498 -331 -707 -374 l-31 -6 -27 116 c-15 64 -25 118 -23 121 3 2
16 -43 28 -101 13 -58 27 -110 30 -115 14 -23 275 72 430 157 83 46 197 126
280 197 81 69 94 73 20 5z m510 -24 c19 -19 32 -35 29 -35 -3 0 -20 16 -39 35
-19 19 -32 35 -29 35 3 0 20 -16 39 -35z m321 12 c-10 -9 -11 -8 -5 6 3 10 9
15 12 12 3 -3 0 -11 -7 -18z m-2131 -142 c0 -22 -4 -25 -32 -24 -31 2 -31 2
-5 6 19 3 27 10 27 24 0 10 2 19 5 19 3 0 5 -11 5 -25z m1650 -168 c-102 -99
-332 -275 -421 -324 -24 -13 -36 -18 -25 -11 261 182 355 256 471 373 39 38
72 68 75 67 3 -2 -42 -50 -100 -105z m78 31 c-66 -77 -155 -167 -218 -219 -56
-47 -235 -159 -253 -159 -15 0 -8 5 58 41 33 18 87 50 120 73 65 43 239 208
295 279 19 25 37 43 39 41 2 -2 -16 -27 -41 -56z m242 39 c0 -2 -10 -12 -22
-23 l-23 -19 19 23 c18 21 26 27 26 19z m-40 -50 c0 -2 -17 -19 -37 -38 l-38
-34 34 38 c33 34 41 42 41 34z m-3385 -67 c33 -33 57 -60 54 -60 -2 0 -31 27
-64 60 -33 33 -57 60 -54 60 2 0 31 -27 64 -60z m1198 -7 c-7 -2 -19 -2 -25 0
-7 3 -2 5 12 5 14 0 19 -2 13 -5z m167 -23 c27 -7 22 -8 -25 -4 -33 3 -76 9
-95 14 -27 7 -22 8 25 4 33 -3 76 -9 95 -14z m-125 -15 c54 -17 33 -18 -30 -1
-27 8 -41 14 -30 14 11 0 38 -5 60 -13z m117 -27 c29 -6 57 -15 62 -19 8 -7
-103 15 -129 25 -21 9 16 5 67 -6z m548 -39 c-19 -5 -105 -11 -190 -13 l-155
-5 159 9 c87 5 161 11 164 14 3 3 17 6 31 5 22 -1 21 -2 -9 -10z m705 -21
c-136 -85 -293 -157 -434 -197 -110 -30 -97 -19 18 18 141 45 252 93 356 155
96 58 144 77 60 24z m595 3 c-5 -11 -15 -23 -21 -27 -6 -3 -3 5 6 20 20 30 30
35 15 7z m-570 -21 c-109 -87 -317 -195 -443 -230 -44 -12 -81 -20 -83 -17 -2
2 33 14 78 26 107 30 260 103 373 179 91 62 121 78 75 42z m-1223 -37 c-3 -10
-5 -4 -5 12 0 17 2 24 5 18 2 -7 2 -21 0 -30z m660 -25 c-3 -7 -5 -2 -5 12 0
14 2 19 5 13 2 -7 2 -19 0 -25z m1052 6 c-13 -14 -33 -30 -44 -36 -11 -6 -2 6
20 25 47 43 58 48 24 11z m-70 -57 c-2 -1 -15 -11 -29 -22 l-25 -20 19 23 c11
12 24 22 29 22 6 0 8 -1 6 -3z m-380 -51 c-2 -2 -15 -9 -29 -15 -24 -11 -24
-11 -6 3 16 13 49 24 35 12z m291 -10 c0 -2 -8 -10 -17 -17 -16 -13 -17 -12
-4 4 13 16 21 21 21 13z m-1000 -50 c0 -3 -26 -10 -57 -16 -32 -6 -67 -14 -78
-17 -11 -3 -17 -2 -13 2 13 13 148 42 148 31z m-15 -46 c-11 -5 -40 -8 -65 -8
l-45 1 50 7 c72 10 83 10 60 0z m22 -52 c-3 -7 -5 -2 -5 12 0 14 2 19 5 13 2
-7 2 -19 0 -25z m-374 15 c-7 -2 -19 -2 -25 0 -7 3 -2 5 12 5 14 0 19 -2 13
-5z m152 -8 c6 -2 -23 -4 -62 -3 -40 1 -73 4 -73 8 0 6 116 2 135 -5z m985 -5
c-8 -5 -19 -10 -25 -10 -5 0 -3 5 5 10 8 5 20 10 25 10 6 0 3 -5 -5 -10z
m-997 -27 c-7 -2 -19 -2 -25 0 -7 3 -2 5 12 5 14 0 19 -2 13 -5z m-153 -7 c0
-2 -7 -6 -15 -10 -8 -3 -15 -1 -15 4 0 6 7 10 15 10 8 0 15 -2 15 -4z m88 -3
c-16 -2 -40 -2 -55 0 -16 2 -3 4 27 4 30 0 43 -2 28 -4z m862 -47 c0 -2 -7 -7
-16 -10 -8 -3 -12 -2 -9 4 6 10 25 14 25 6z m-637 -143 c-7 -2 -21 -2 -30 0
-10 3 -4 5 12 5 17 0 24 -2 18 -5z"/>
<path d="M2574 4172 c4 -7 13 -12 20 -12 7 0 21 -10 32 -22 l19 -23 -25 20
c-14 11 -3 -4 25 -33 27 -29 55 -50 63 -47 7 2 11 1 8 -4 -7 -11 40 -55 51
-48 5 3 15 1 23 -5 12 -8 11 -9 -4 -4 -16 6 -17 4 -6 -9 7 -9 19 -14 26 -11 7
3 18 -3 26 -12 12 -15 11 -16 -4 -3 -10 7 -18 11 -18 8 0 -12 90 -68 99 -62 5
3 13 0 17 -6 5 -8 3 -9 -6 -4 -9 6 -11 4 -6 -4 5 -7 14 -10 22 -7 8 3 13 0 11
-7 -1 -7 6 -11 15 -11 10 1 15 -2 13 -7 -8 -11 31 -30 48 -23 8 3 18 1 22 -5
4 -7 -1 -9 -12 -5 -10 3 8 -9 40 -26 32 -17 63 -28 69 -24 6 4 8 3 5 -4 -11
-16 202 -100 223 -87 5 3 10 2 10 -2 0 -11 138 -45 151 -38 5 3 3 14 -3 25 -7
10 -16 17 -20 14 -4 -3 -5 3 -1 12 5 13 3 15 -7 9 -9 -5 -11 -4 -6 3 4 7 -2
32 -13 57 -18 42 -23 45 -48 39 -18 -3 -23 -2 -15 3 9 7 2 13 -24 21 -21 6
-41 9 -46 6 -11 -7 -49 6 -44 15 3 4 -11 15 -30 25 -20 9 -32 11 -28 5 5 -8 1
-8 -15 0 -11 7 -21 14 -21 17 0 3 5 2 10 -1 6 -3 10 -4 10 -2 0 5 -99 67 -106
67 -3 0 -2 -6 2 -12 5 -9 3 -9 -9 1 -9 7 -15 17 -12 21 7 11 -50 51 -60 42 -5
-4 -5 -2 -2 4 7 12 -55 74 -73 74 -6 0 -10 6 -10 13 0 8 -10 23 -23 35 -21 20
-37 22 -186 27 -90 3 -168 8 -174 12 -6 3 -7 1 -3 -5z m126 -102 c0 -5 -2 -10
-4 -10 -3 0 -8 5 -11 10 -3 6 -1 10 4 10 6 0 11 -4 11 -10z m305 -20 c10 -11
16 -20 13 -20 -3 0 -13 9 -23 20 -10 11 -16 20 -13 20 3 0 13 -9 23 -20z
m-250 -28 c-3 -3 -11 0 -18 7 -9 10 -8 11 6 5 10 -3 15 -9 12 -12z m410 -100
c-3 -3 -11 0 -18 7 -9 10 -8 11 6 5 10 -3 15 -9 12 -12z m299 -138 c5 -14 4
-15 -9 -4 -17 14 -19 20 -6 20 5 0 12 -7 15 -16z m-254 -34 c8 -5 11 -10 5
-10 -5 0 -17 5 -25 10 -8 5 -10 10 -5 10 6 0 17 -5 25 -10z"/>
<path d="M8982 3860 c0 -19 2 -27 5 -17 2 9 2 25 0 35 -3 9 -5 1 -5 -18z"/>
<path d="M8042 3740 c-18 -40 -29 -76 -25 -86 4 -11 2 -15 -4 -11 -7 5 -9 -1
-5 -15 3 -13 1 -19 -5 -15 -11 7 -28 -41 -18 -51 3 -3 5 3 5 13 0 10 2 16 5
13 3 -3 2 -20 -2 -38 -5 -29 -7 -31 -15 -15 -5 13 -6 6 -3 -20 4 -26 3 -35 -3
-26 -12 17 -22 -88 -21 -216 1 -50 -2 -96 -6 -103 -4 -6 -2 -17 5 -24 7 -9 7
-15 1 -18 -6 -1 -12 -48 -13 -105 -2 -56 -5 -97 -7 -90 -6 16 -33 -108 -34
-155 -1 -20 -4 -32 -8 -26 -9 14 -20 -36 -13 -59 5 -15 4 -15 -5 -3 -9 13 -11
12 -12 -5 -1 -11 -3 -27 -4 -35 -1 -8 -3 -21 -4 -28 0 -7 -5 -11 -10 -7 -12 7
-25 -31 -15 -46 4 -8 3 -9 -4 -5 -13 8 -45 -60 -36 -75 3 -5 2 -8 -3 -7 -4 2
-8 1 -8 -2 0 -3 -10 -16 -23 -30 -12 -13 -21 -29 -18 -35 2 -7 -2 -12 -9 -12
-8 0 -12 14 -12 38 0 21 3 36 7 34 23 -14 26 236 4 360 -18 103 -28 125 -20
45 5 -53 5 -53 -5 -15 -5 22 -8 52 -5 68 3 15 1 27 -4 27 -9 0 -16 -130 -14
-253 1 -26 -2 -34 -8 -25 -7 9 -8 4 -4 -14 4 -16 1 -28 -6 -30 -6 -2 -11 -25
-12 -50 -1 -27 -4 -41 -9 -35 -5 7 -5 -4 -2 -23 4 -24 3 -30 -3 -21 -8 10 -11
6 -17 -17 -3 -18 -3 -37 1 -44 4 -7 3 -10 -1 -5 -9 7 -96 -194 -98 -225 -1 -9
-4 -15 -8 -12 -10 6 -20 -26 -12 -38 3 -6 2 -8 -4 -5 -13 8 -46 -50 -37 -65 4
-7 3 -8 -4 -4 -7 4 -12 2 -12 -3 0 -6 -4 -11 -10 -11 -5 0 -10 17 -10 38 0 46
-24 140 -50 200 -22 50 -36 51 -25 1 5 -22 10 -28 15 -18 5 7 6 -21 3 -62 -4
-52 -2 -78 6 -83 6 -4 10 -22 10 -39 l-2 -32 -7 35 c-6 26 -8 15 -7 -42 1 -42
-1 -75 -4 -73 -9 6 -30 -111 -23 -131 4 -12 3 -15 -3 -7 -5 8 -16 -9 -30 -50
-16 -45 -17 -57 -6 -42 15 20 15 20 10 -2 -4 -19 4 -16 55 25 78 60 308 281
308 294 0 6 -8 5 -17 -3 -10 -7 -7 -1 6 14 27 30 41 37 20 10 -11 -15 -10 -15
8 1 13 10 20 24 16 30 -3 6 -3 8 2 4 9 -9 35 9 35 24 0 5 -6 6 -12 2 -7 -4 -2
5 11 19 14 15 27 27 29 27 3 0 -3 -9 -13 -20 -10 -11 -16 -20 -12 -20 3 0 20
19 38 43 25 31 27 37 9 22 -21 -18 -21 -16 4 18 16 20 31 37 33 37 3 0 -1 -8
-8 -17 -13 -16 -12 -17 4 -4 10 8 16 20 13 27 -3 8 0 13 7 11 7 -1 12 6 12 15
0 9 4 20 9 25 5 5 6 2 2 -7 -4 -8 2 -4 13 10 11 14 19 31 16 37 -2 7 0 12 6
10 11 -2 112 180 124 223 5 20 4 22 -5 10 -10 -13 -11 -12 -6 3 3 10 6 21 6
23 0 3 4 3 9 0 13 -9 53 117 45 139 -6 14 -4 16 6 10 10 -6 11 -2 6 19 -4 16
-3 25 2 22 14 -8 33 103 27 159 -3 37 -2 43 4 25 6 -16 9 28 9 130 -1 98 -4
140 -8 115 -6 -31 -7 -26 -4 23 4 74 -6 159 -16 142 -4 -6 -5 12 -3 42 3 32 1
48 -4 40 -6 -7 -9 46 -9 133 1 80 -2 145 -5 145 -4 0 -20 -31 -37 -70z m19 7
c-10 -9 -11 -8 -5 6 3 10 9 15 12 12 3 -3 0 -11 -7 -18z m46 -379 c-3 -7 -5
-2 -5 12 0 14 2 19 5 13 2 -7 2 -19 0 -25z m-140 0 c-3 -8 -6 -5 -6 6 -1 11 2
17 5 13 3 -3 4 -12 1 -19z m150 -290 c-3 -8 -6 -5 -6 6 -1 11 2 17 5 13 3 -3
4 -12 1 -19z m-10 -130 c-3 -7 -5 -2 -5 12 0 14 2 19 5 13 2 -7 2 -19 0 -25z
m-390 -150 c-3 -8 -6 -5 -6 6 -1 11 2 17 5 13 3 -3 4 -12 1 -19z m10 -70 c-3
-7 -5 -2 -5 12 0 14 2 19 5 13 2 -7 2 -19 0 -25z m228 -228 c-9 -16 -18 -30
-21 -30 -2 0 2 14 11 30 9 17 18 30 21 30 2 0 -2 -13 -11 -30z m-571 -245 c3
-8 1 -15 -4 -15 -6 0 -10 7 -10 15 0 8 2 15 4 15 2 0 6 -7 10 -15z m256 -188
c0 -2 -12 -14 -27 -28 l-28 -24 24 28 c23 25 31 32 31 24z m-100 -103 c-25
-25 -58 -55 -75 -67 -16 -11 2 9 40 46 81 76 100 88 35 21z m-115 -104 c-3 -5
-20 -19 -38 -30 -32 -22 -32 -22 3 9 37 32 45 37 35 21z"/>
<path d="M3730 3390 c0 -5 5 -10 11 -10 5 0 7 5 4 10 -3 6 -8 10 -11 10 -2 0
-4 -4 -4 -10z"/>
<path d="M3742 3345 c0 -16 2 -22 5 -12 2 9 2 23 0 30 -3 6 -5 -1 -5 -18z"/>
<path d="M3761 3337 c-2 -12 -4 -59 -5 -104 0 -44 -4 -77 -7 -71 -4 5 -9 -6
-13 -26 -4 -20 -4 -41 0 -48 5 -7 3 -8 -6 -3 -10 6 -11 2 -6 -18 3 -14 2 -29
-4 -32 -6 -3 -7 1 -4 12 3 10 -2 6 -11 -10 -9 -15 -13 -32 -10 -37 4 -6 1 -9
-7 -8 -7 2 -13 -4 -14 -12 -2 -24 -15 -50 -27 -50 -6 0 -4 8 4 18 8 10 4 7 -9
-6 -12 -13 -19 -29 -16 -35 4 -7 4 -9 -1 -5 -10 10 -47 -10 -40 -22 3 -5 0
-12 -6 -16 -8 -5 -9 -3 -4 6 4 7 4 11 -1 8 -43 -19 -64 -32 -64 -39 0 -5 -7
-5 -17 -2 -10 4 -14 2 -10 -4 4 -6 1 -10 -6 -10 -23 2 -97 -15 -93 -21 2 -4
-39 -6 -92 -4 l-97 3 40 -40 c21 -23 44 -40 50 -38 6 1 28 -13 49 -30 20 -18
33 -33 29 -33 -4 0 -23 15 -42 33 -29 26 -31 27 -11 4 39 -45 182 -148 196
-143 7 3 16 0 20 -6 5 -7 2 -8 -6 -3 -9 6 -11 4 -6 -4 5 -7 15 -10 24 -6 9 3
13 3 9 -1 -10 -10 31 -36 45 -28 7 5 8 3 3 -6 -6 -10 -4 -12 8 -7 9 3 19 1 23
-5 5 -7 2 -8 -6 -3 -8 5 -11 4 -7 -3 11 -16 156 -74 169 -66 7 5 8 3 3 -6 -6
-9 -2 -10 15 -5 14 4 20 3 16 -3 -7 -12 36 -24 61 -16 13 4 14 3 5 -3 -18 -14
56 -34 99 -28 25 4 29 3 14 -3 -16 -7 -12 -10 26 -16 25 -4 66 -4 90 -2 33 4
38 3 19 -3 -17 -6 8 -9 85 -10 80 0 106 2 95 10 -11 8 -5 9 24 4 47 -8 172 14
154 27 -8 6 1 7 22 3 28 -5 32 -4 20 5 -12 10 -10 11 10 6 32 -7 112 13 103
27 -3 6 -1 7 6 3 14 -9 83 13 76 24 -3 4 5 6 17 2 13 -3 19 -1 15 5 -4 6 5 15
19 22 35 16 44 13 14 -5 -25 -16 -20 -14 42 8 16 5 25 14 22 20 -4 6 1 8 12 4
11 -3 26 -1 34 5 13 9 12 10 -3 5 -11 -4 -16 -2 -11 5 3 6 15 8 26 6 11 -3 33
0 50 7 30 13 28 13 -63 35 -105 24 -129 26 -129 10 0 -5 -4 -8 -9 -5 -4 3 -59
-7 -121 -23 -62 -16 -106 -31 -99 -33 8 -3 -8 -3 -35 0 -31 3 -47 1 -43 -5 4
-6 -13 -9 -46 -6 -37 2 -46 1 -32 -6 13 -6 -8 -7 -60 -4 -44 3 -118 6 -165 6
-48 0 -74 3 -60 6 20 6 13 9 -32 14 -31 4 -65 4 -75 1 -12 -4 -14 -3 -6 3 9 6
-7 13 -48 22 -67 15 -76 37 -13 34 29 -2 34 0 19 6 -14 6 -8 8 25 7 35 -1 67
10 140 46 52 25 109 58 125 72 l30 26 -55 -25 c-30 -13 -80 -30 -109 -38 -33
-8 -49 -17 -40 -20 7 -4 -4 -4 -26 -2 -23 3 -33 2 -23 -2 10 -5 -39 -8 -107
-8 -69 0 -125 4 -125 9 0 4 -20 6 -44 5 -25 -2 -42 0 -38 5 3 5 -9 6 -29 3
-26 -5 -30 -4 -19 4 11 8 7 9 -18 5 -18 -3 -31 -2 -28 3 3 5 -6 12 -21 15 -35
9 -15 29 29 28 24 -1 29 2 18 9 -12 8 -10 9 6 4 26 -7 96 24 87 38 -3 6 -1 7
5 3 15 -9 64 23 55 37 -3 5 -1 7 5 4 21 -14 99 101 88 129 -3 8 -2 13 3 10 21
-14 29 145 10 220 -6 24 -15 47 -20 50 -5 3 -6 -3 -3 -13 5 -14 4 -15 -4 -4
-6 8 -8 21 -4 29 4 11 1 13 -8 7 -9 -5 -11 -4 -6 3 8 14 -12 55 -23 47 -5 -2
-8 3 -7 12 0 10 -6 18 -14 18 -8 0 -14 8 -12 16 1 9 -4 21 -11 27 -10 8 -13 6
-16 -11z m-433 -554 c-16 -2 -40 -2 -55 0 -16 2 -3 4 27 4 30 0 43 -2 28 -4z
m851 -117 c-15 -13 -49 -25 -49 -17 0 5 8 12 18 14 24 6 36 8 31 3z m-748 -53
l24 -28 -30 25 c-16 14 -32 26 -34 28 -2 1 0 2 6 2 5 0 20 -12 34 -27z m326
11 c-3 -3 -12 -4 -19 -1 -8 3 -5 6 6 6 11 1 17 -2 13 -5z m1133 -84 l25 -8
-25 0 c-14 0 -34 3 -45 8 l-20 9 20 -1 c11 0 31 -4 45 -8z m60 -20 c-20 -13
-33 -13 -25 0 3 6 14 10 23 10 15 0 15 -2 2 -10z m-343 -16 c-3 -3 -12 -4 -19
-1 -8 3 -5 6 6 6 11 1 17 -2 13 -5z m-942 -34 c3 -6 -1 -7 -9 -4 -18 7 -21 14
-7 14 6 0 13 -4 16 -10z m572 4 c-3 -3 -12 -4 -19 -1 -8 3 -5 6 6 6 11 1 17
-2 13 -5z m-280 -110 c-3 -3 -12 -4 -19 -1 -8 3 -5 6 6 6 11 1 17 -2 13 -5z
m446 -21 c-7 -2 -21 -2 -30 0 -10 3 -4 5 12 5 17 0 24 -2 18 -5z m-210 -10
c-7 -2 -19 -2 -25 0 -7 3 -2 5 12 5 14 0 19 -2 13 -5z"/>
<path d="M4440 3106 c0 -2 8 -10 18 -17 15 -13 16 -12 3 4 -13 16 -21 21 -21
13z"/>
<path d="M6813 2660 c-55 -13 -186 -99 -180 -119 1 -5 -23 -29 -53 -56 l-55
-47 53 51 c29 28 49 51 44 51 -18 0 -123 -120 -116 -132 4 -7 4 -10 -1 -6 -11
10 -37 -11 -29 -23 3 -5 0 -8 -8 -7 -7 2 -13 -5 -13 -14 0 -10 -9 -25 -20 -35
-19 -18 -19 -18 0 7 l20 25 -23 -19 c-12 -11 -21 -25 -18 -32 3 -7 -3 -18 -12
-26 -13 -11 -15 -11 -7 2 8 13 7 13 -8 1 -19 -15 -23 -36 -5 -25 7 5 8 3 4 -5
-5 -7 -11 -10 -14 -6 -7 6 -102 -85 -102 -98 0 -4 5 -5 12 -1 7 4 8 3 4 -5 -4
-6 -11 -9 -15 -6 -12 7 -102 -75 -95 -86 3 -5 1 -8 -4 -7 -10 3 -102 -59 -102
-69 0 -3 8 1 18 8 15 13 16 12 3 -3 -7 -10 -17 -15 -22 -12 -13 8 -60 -27 -52
-39 3 -6 1 -7 -6 -3 -6 4 -18 2 -26 -4 -9 -7 -15 -8 -15 -2 0 5 7 15 16 23 29
24 75 99 68 111 -5 7 -3 8 6 3 10 -6 12 -4 7 9 -4 10 -3 15 3 11 12 -8 43 53
36 71 -3 8 -2 12 4 9 9 -6 35 70 45 133 l6 37 -25 -47 c-14 -26 -31 -50 -37
-54 -6 -4 0 13 15 38 14 25 26 49 26 54 0 5 -12 -11 -26 -36 -14 -25 -35 -61
-47 -80 -20 -33 -20 -34 -2 -21 11 8 3 -2 -18 -22 -21 -20 -36 -41 -33 -46 4
-5 1 -13 -5 -17 -8 -5 -9 -3 -4 7 6 11 5 11 -4 3 -7 -6 -13 -19 -15 -28 -1 -9
-6 -17 -12 -17 -13 -1 -34 -20 -34 -31 0 -5 6 -6 13 -2 8 5 7 2 -2 -9 -8 -10
-16 -15 -19 -12 -9 9 -102 -87 -95 -98 4 -6 1 -7 -6 -3 -14 9 -53 -22 -46 -35
3 -4 0 -11 -6 -15 -8 -5 -9 -3 -4 6 5 8 3 11 -6 8 -8 -3 -13 -12 -11 -19 2 -8
1 -11 -3 -7 -4 3 -40 -12 -82 -34 -58 -31 -77 -38 -86 -29 -9 10 -9 12 3 9 8
-2 14 3 13 9 -2 7 2 12 8 10 6 -1 14 4 17 12 3 9 0 11 -8 6 -9 -5 -11 -4 -6 4
4 6 11 9 16 6 13 -8 63 82 56 101 -3 8 -2 12 3 9 13 -8 23 28 16 62 -4 24 -4
25 5 8 8 -16 9 -10 6 24 -3 31 -2 41 5 30 16 -24 -1 81 -21 128 -22 50 -98
136 -116 129 -7 -3 -18 3 -26 12 -12 16 -11 16 6 2 12 -9 17 -10 12 -2 -10 16
-64 44 -74 38 -4 -3 -14 0 -22 6 -12 8 -11 8 5 3 13 -4 16 -3 10 3 -13 12
-104 46 -110 41 -2 -3 18 -29 45 -59 28 -29 50 -58 50 -64 0 -5 -7 -1 -14 10
-9 11 -6 -5 7 -37 13 -34 25 -52 29 -45 5 6 5 -4 1 -23 -3 -20 -2 -32 3 -28 5
3 6 -44 1 -116 -10 -163 -11 -166 -21 -159 -5 3 -7 -2 -3 -11 3 -9 1 -17 -5
-19 -6 -2 -11 -13 -12 -24 -1 -25 -37 -94 -49 -94 -5 0 0 12 11 28 26 37 34
52 29 52 -11 0 -57 -82 -51 -92 4 -6 3 -8 -3 -5 -11 7 -51 -31 -52 -48 -1 -5
-4 -10 -8 -10 -18 -1 -62 -38 -56 -48 3 -5 2 -8 -3 -4 -5 3 -50 -15 -99 -40
l-90 -45 195 6 c215 7 280 13 259 27 -8 5 2 6 25 2 30 -5 37 -3 31 7 -6 9 0
10 25 5 25 -5 31 -4 25 5 -5 9 -4 11 4 6 17 -11 73 3 65 16 -4 7 -2 8 5 4 16
-10 73 3 65 16 -4 6 2 8 16 3 14 -4 20 -3 16 3 -3 5 1 13 10 16 24 9 31 7 14
-5 -23 -16 22 -2 107 34 42 17 70 34 66 40 -3 5 -1 7 5 4 15 -10 43 3 35 16
-3 6 -1 7 5 3 15 -9 54 12 47 24 -4 6 1 7 11 3 11 -4 15 -2 11 4 -4 6 1 10 11
9 9 0 16 5 14 12 -1 8 2 11 7 7 13 -8 122 65 115 77 -3 4 0 7 8 6 7 -2 12 2
11 9 -2 7 3 10 10 8 6 -3 30 13 52 36 22 22 61 61 88 86 44 43 63 74 35 57 -9
-5 -9 -3 1 9 7 9 17 14 22 12 8 -5 25 19 29 40 1 6 4 12 7 15 4 3 2 -2 -2 -10
-8 -13 -7 -13 9 -1 9 8 15 20 12 27 -3 7 0 16 6 20 7 5 8 2 4 -7 -4 -8 2 -3
13 11 11 14 19 30 16 37 -2 7 1 15 7 19 7 5 8 2 3 -7 -4 -8 4 0 19 16 27 31
34 51 14 39 -7 -4 -8 -3 -4 5 4 6 12 9 17 6 8 -6 13 9 10 28 -1 5 2 6 7 3 11
-6 55 51 48 63 -3 4 9 21 27 37 l32 29 -30 -35 c-16 -19 4 -3 45 36 41 39 98
86 125 104 28 18 42 30 32 26 -11 -4 -16 -2 -11 5 3 6 15 8 26 6 16 -4 17 -3
7 9 -9 11 -7 14 12 15 21 1 20 2 -6 9 -39 10 -131 10 -172 0z m112 -58 c-52
-43 -107 -83 -95 -68 15 20 89 76 99 76 3 0 1 -4 -4 -8z m-1491 -208 c9 -24 2
-26 -12 -4 -7 11 -8 20 -3 20 5 0 12 -7 15 -16z m202 -116 l29 -33 -32 29
c-18 17 -33 31 -33 33 0 8 8 1 36 -29z m824 -222 c0 -2 -8 -10 -17 -17 -16
-13 -17 -12 -4 4 13 16 21 21 21 13z m-320 -40 c0 -2 -8 -10 -17 -17 -16 -13
-17 -12 -4 4 13 16 21 21 21 13z m-220 -29 c0 -2 -17 -19 -37 -38 l-38 -34 34
38 c33 34 41 42 41 34z m470 0 c0 -2 -17 -19 -37 -38 l-38 -34 34 38 c33 34
41 42 41 34z m-120 -101 c0 -2 -8 -10 -17 -17 -16 -13 -17 -12 -4 4 13 16 21
21 21 13z m-330 -190 c0 -2 -7 -7 -16 -10 -8 -3 -12 -2 -9 4 6 10 25 14 25 6z
m-447 -123 c-7 -2 -19 -2 -25 0 -7 3 -2 5 12 5 14 0 19 -2 13 -5z m-316 -9
c-3 -3 -12 -4 -19 -1 -8 3 -5 6 6 6 11 1 17 -2 13 -5z"/>
<path d="M7266 1733 c-6 -14 -5 -15 5 -6 7 7 10 15 7 18 -3 3 -9 -2 -12 -12z"/>
</g>
</svg>
